<svg xmlns="http://www.w3.org/2000/svg" width="950" height="475"><defs><linearGradient id="d"><stop offset="0" stop-color="#ffe42b"/><stop offset=".095" stop-color="#ffe42b"/><stop offset=".191" stop-color="#fff4d4"/><stop offset=".374" stop-color="#fff4d4"/><stop offset=".519" stop-color="#ffe42b"/><stop offset="1" stop-color="#ffe42b"/></linearGradient><linearGradient id="c"><stop offset="0" stop-color="#ffe42b"/><stop offset=".095" stop-color="#ffe42b"/><stop offset=".191" stop-color="#fff4d4"/><stop offset=".374" stop-color="#fff4d4"/><stop offset=".519" stop-color="#ffe42b"/><stop offset="1" stop-color="#ffe42b"/></linearGradient><linearGradient id="b"><stop offset="0" stop-color="#ffe42b"/><stop offset=".095" stop-color="#ffe42b"/><stop offset=".191" stop-color="#fff4d4"/><stop offset=".374" stop-color="#fff4d4"/><stop offset=".519" stop-color="#ffe42b"/><stop offset="1" stop-color="#ffe42b"/></linearGradient><linearGradient id="a"><stop offset="0" stop-color="#ffe42b"/><stop offset=".095" stop-color="#ffe42b"/><stop offset=".191" stop-color="#fff4d4"/><stop offset=".374" stop-color="#fff4d4"/><stop offset=".519" stop-color="#ffe42b"/><stop offset="1" stop-color="#ffe42b"/></linearGradient></defs><path d="M292.614 473.118c-4.234-1.228-9.975-3.232-12.758-4.455-5.769-2.532-10.787-2.304-18.995.866-2.646 1.022-6.759 2.131-9.14 2.464-7.566 1.059-26.796-2.396-32.541-5.846-2.976-1.787-3.176-1.788-7.626-.028-5.882 2.318-8.059 2.149-12.72-.987-3.355-2.257-4.177-2.433-6.874-1.478-3.611 1.28-20.71 1.468-21.46.237-.284-.468-2.209-1.125-4.278-1.461-2.068-.337-6.083-1.71-8.92-3.053-2.839-1.344-5.85-2.447-6.695-2.452-1.879-.011-4.4-2.77-4.86-5.315-.248-1.371-1.666-2.186-5.225-3-2.687-.616-7.016-2.36-9.622-3.875-3.658-2.13-6.067-2.782-10.584-2.868-4.823-.099-6.467-.593-9.38-2.852-2.837-2.2-3.534-3.389-3.534-6.034 0-1.811.724-4.576 1.609-6.143 2.096-3.713 1.41-5.232-4.39-9.724-2.643-2.048-4.83-4.29-4.861-4.98-.03-.69 1.5-2.188 3.4-3.328 3.099-1.858 3.392-2.385 2.841-5.102-1.718-8.473-1.71-9.469.086-11.487 2.991-3.36 6.672-4.74 12.074-4.527 6.238.247 10.062-1.525 13.057-6.046 4.295-6.487 11.992-7.095 17.27-1.365 1.27 1.38 3.223 2.301 4.876 2.301 3.742 0 12.54 2.705 16.21 4.984 3.199 1.987 7.653 2.407 9.938.937.9-.578 2.601-.38 4.81.562 2.196.936 4.624 1.224 6.786.803 5.893-1.146 18.885-.538 23.733 1.109 2.557.87 6.815 2.714 9.46 4.099 5.367 2.808 10.312 3.285 29.827 2.88 5.032-.099 6.621.365 12.387 3.653 6.314 3.602 6.773 3.715 10.103 2.496 1.918-.703 5.22-2.403 7.336-3.778 5.093-3.307 14.496-4 21.809-1.606 7.094 2.322 15.172 6.277 18.535 9.074 2.314 1.924 3.438 2.22 6.254 1.651 1.889-.382 6.847-.75 11.02-.82 5.66-.098 7.785-.498 8.37-1.592.431-.806 2.378-5.17 4.326-9.698 3.398-7.898 3.492-8.412 2.326-12.715-.668-2.466-1.174-6.405-1.125-8.751.094-4.485 3.336-15.241 5.347-17.74.65-.807 1.64-2.568 2.2-3.913.562-1.345 2.597-4.361 4.523-6.703 4.799-5.834 5.066-7.691 2.007-13.94-2.345-4.79-2.605-6.433-2.814-17.799-.254-13.782-.844-15.428-4.864-13.566-2.722 1.261-9.08 1.497-13.899.518-1.704-.347-4.608-2.214-6.465-4.157-3.359-3.514-3.404-3.528-11.701-3.538-7.267-.009-8.882-.34-12.657-2.598-2.38-1.424-5.698-4.17-7.372-6.104-2.94-3.393-3.274-3.514-9.659-3.514-4.714 0-7.697-.562-10.388-1.957-2.076-1.075-4.236-1.956-4.8-1.956-1.213 0-2.914-1.976-6.462-7.505-2.627-4.096-3.137-4.342-11.83-5.712-2.116-.334-5.796-1.567-8.177-2.742-3.513-1.733-4.812-3.15-6.885-7.515-2.75-5.79-5.326-7.788-10.076-7.81-6.745-.029-15.3-5.865-16.264-11.088-.318-1.721-.128-4.333.422-5.804.863-2.306.706-2.867-1.138-4.07-1.177-.77-4.088-1.685-6.47-2.037-2.381-.352-6.494-1.846-9.14-3.322-5.23-2.917-7.06-6.253-7.161-13.063-.03-2.017-.38-3.699-.776-3.737-17.352-1.673-23.284-3.265-28.24-7.577-3.652-3.179-3.88-3.683-3.585-7.9l.315-4.504-16.356-.029c-13.692-.028-17.767-.387-25.016-2.228-10.072-2.56-14.913-4.653-14.913-6.446 0-1.589 1.692-6.99 3.388-10.814 2.278-5.136-.281-7.097-8.68-6.65-1.058.057-5.604-.364-10.102-.934-4.498-.57-9.044-1.11-10.103-1.2-2.466-.208-16.08-7.048-21.58-10.842-6.54-4.512-15.237-13.076-16.213-15.963-.665-1.968-.453-3.319.87-5.537 3.602-6.039 5.654-10.234 5.654-11.562 0-.754-2.54-2.747-5.646-4.43-3.105-1.682-6.189-3.724-6.853-4.537-.663-.814-1.707-1.479-2.32-1.479-1.586 0-12.226-11.291-16.313-17.313l-3.453-5.087 4.776-5.672c2.627-3.12 4.78-6.154 4.785-6.743.011-1.475-2.889-3.931-5.659-4.791C18.77 60.097-1.373 35.257.074 30.62c1.133-3.629 9.105-8.05 18.218-10.102 7.72-1.739 11.02-1.913 27.533-1.45 10.32.288 23.525.99 29.345 1.556 13.735 1.337 71.83 3.006 104.472 3 32.49-.006 55.126-.79 74.005-2.563 8.202-.77 18.81-1.614 23.572-1.877 4.763-.263 10.462-.68 12.665-.926 6.403-.72 24.361 1.21 26.878 2.886 1.234.823 2.846 1.494 3.584 1.494 1.904 0 9.765 7.249 12.194 11.244 4.009 6.594 5.652 15.069 5.158 26.606-.248 5.811-1.066 14.087-1.818 18.39-2.693 15.422-3.319 26.305-1.837 31.963.75 2.863 1.368 6.36 1.374 7.77.014 3.214 3.252 10.796 6.973 16.327 4.352 6.472 15.513 16.382 22.683 20.141 2.533 1.328 3.815 1.463 6.254.656 1.688-.557 6.316-.99 10.284-.964 3.97.028 8.355-.39 9.748-.93 1.577-.61 4.366-3.862 7.4-8.628 2.678-4.207 6.193-9.243 7.812-11.191 1.618-1.948 2.942-3.801 2.942-4.118 0-.317 2.07-2.713 4.598-5.325 2.777-2.867 5.15-6.467 5.989-9.086.765-2.386 2.376-5.83 3.58-7.653 1.204-1.823 2.19-3.693 2.19-4.155 0-.461 1.515-2.983 3.367-5.604 1.852-2.62 3.368-5.118 3.368-5.55 0-.43.728-1.602 1.618-2.602 1.304-1.464 1.702-4.476 2.047-15.463.641-20.413 1.103-20.004-27.719-24.522-3.969-.622-11.056-2.008-15.75-3.08-4.92-1.123-9.98-1.71-11.952-1.385-6.81 1.124-14.118-5.46-13.858-12.486.236-6.373 6.262-16.785 11.825-20.432 3.7-2.426 16.552-4.638 26.162-4.504 12.831.18 17.596-.774 23.376-4.675L433.36.004l8.03 1.194c8.176 1.215 17.036 5.167 23.308 10.395 3.84 3.201 12.492 7.421 19.717 9.617 5.898 1.793 9.766 4.899 9.766 7.843 0 .692-1.082 2.568-2.405 4.166-1.323 1.598-2.405 3.39-2.405 3.983s2.706 4.077 6.013 7.743c7.487 8.297 13.142 21.096 16.569 37.495 1.277 6.11 2.805 12.871 3.395 15.023.591 2.152 1.686 6.933 2.434 10.625.748 3.692 1.775 7.22 2.281 7.841.507.621 1.831 5.303 2.943 10.404 3.08 14.131 5.708 23.366 7.395 25.983 1.387 2.152 2.188 2.37 8.87 2.413 13.575.084 17.658.768 20.36 3.399 3.314 3.229 5.167 3.062 12.002-1.083 5.594-3.39 19.724-17.017 19.724-19.02 0-.543 1.087-2.74 2.416-4.88 3.062-4.93 5.136-11.115 5.59-16.671.196-2.387.6-5 .9-5.807 1.351-3.642 1.503-6.516.587-11.15-1.441-7.289-2.956-22.752-2.836-28.952.126-6.324 4.054-20.15 7.51-26.41 4.786-8.665 13.983-16.507 23.356-19.916 1.324-.482 5.436-1.212 9.14-1.626 3.705-.412 9.964-1.236 13.91-1.829 6.035-.906 9.63-.756 22.611.948 16.466 2.16 23.667 3.012 45.742 5.405 7.673.832 17.415 1.892 21.648 2.357 4.234.465 13.543.882 20.686.924 7.144.042 16.886.491 21.649.996 11.214 1.19 72.2 1.653 88.997.678 7.144-.416 17.752-1.25 23.573-1.852 19.888-2.06 30.081-.72 42.057 5.539 8.442 4.41 11.92 7.915 10.948 11.03-.954 3.056-17.08 15.726-26.547 20.858-8.117 4.4-9.492 6.812-5.816 10.194 2.195 2.02 6.778 10.599 6.778 12.688 0 1.867-5.281 6.859-9.598 9.071-1.865.956-4.04 2.26-4.834 2.896-1.954 1.568-12.505 7.173-13.5 7.173-1.221 0-7.58 4.3-7.626 5.157-.028.416 1.583 2.616 3.567 4.89 1.985 2.275 4.663 5.676 5.951 7.56a419.385 419.385 0 0 0 4.189 6c2.834 3.958 1.422 6.274-7.343 12.041-8.181 5.382-19.677 11.301-21.95 11.301-.725 0-3.536.824-6.246 1.831-2.71 1.007-8.221 2.144-12.248 2.528-4.64.442-8.071 1.315-9.37 2.385-1.965 1.617-1.985 1.815-.47 4.79 2.201 4.33 2.983 11.168 1.58 13.833-1.543 2.93-15.667 9.724-23.838 11.467-9.714 2.072-21.373 3.121-35.551 3.199-7.884.042-12.932.464-13.326 1.113-.35.575-.099 3.892.54 7.373 1.048 5.647.997 6.53-.47 8.177-.905 1.017-3.446 2.139-5.648 2.495-2.202.356-6.385 1.351-9.295 2.211-3.376.998-9.474 1.614-16.838 1.7-14.577.17-13.642-.028-15.367 3.357-3.369 6.622-9.762 11.173-17.31 12.324-5.35.815-5.71 1.105-8.353 6.751-1.338 2.859-3.463 5.55-5.191 6.573-3.51 2.078-15.309 4.725-21.062 4.725-4.33 0-9.207 2.847-9.207 5.376 0 .726-1.068 2.611-2.373 4.189-2.7 3.261-9.771 5.135-16.545 4.384-3.445-.382-4.18-.127-5.256 1.85-.687 1.264-1.151 2.646-1.03 3.075.468 1.664-4.898 9.487-7.338 10.697-2.886 1.43-8.193 1.406-14.48-.07-2.314-.543-4.765-.77-5.446-.503-.682.266-2.85 3.282-4.818 6.704-4.16 7.233-6.84 8.778-14.009 8.078-4.06-.397-5.197-.141-6.724 1.528-1.01 1.104-1.838 2.32-1.838 2.706 0 .386-1.917 1.843-4.26 3.239-4.708 2.805-12.205 3.42-17.745 1.457-2.311-.82-3.395-.79-4.474.113-2.312 1.95-1.653 5.19 2.2 10.825 5.707 8.341 9.503 23.865 10.323 42.211.276 6.163 1.07 11.173 2.249 14.183 8.747 22.335 11.086 33.69 8.872 43.072-.649 2.748-2.183 5.884-3.49 7.133-2.836 2.708-2.92 3.98-.413 6.286 2.147 1.975 4.597 2.065 15.878.58 17.403-2.29 29.002-3.498 31.27-3.258 1.323.14 6.64-.452 11.816-1.315 5.176-.863 9.939-1.364 10.584-1.115.645.25 3.82.085 7.058-.365 3.237-.45 7.783-1.031 10.103-1.29 18.835-2.098 29.741-3.183 32.6-3.244 1.851-.043 4.647-.306 6.213-.592 1.565-.286 4.92-.81 7.455-1.164 5.355-.749 6.004-1.491 5.71-6.542-.288-4.962 1.197-5.419 10.324-3.177 4.037.99 7.772 1.831 8.301 1.867.53.028 1.862.587 2.961 1.226 1.1.639 5.25 1.461 9.223 1.827 7.896.728 11.389-.316 11.389-3.402 0-2.677 2.537-4.532 4.238-3.097 2.622 2.213 14.633 5.218 23.664 5.922 7.3.569 11.077 1.488 18.762 4.565 9.448 3.783 9.626 3.913 9.88 7.236.516 6.707 1.05 7.785 3.863 7.785 1.453 0 4.257.88 6.232 1.956 1.974 1.076 5.02 1.957 6.769 1.957 3.508 0 5.487 1.454 5.487 4.032 0 1.964-3.479 3.282-12.434 4.71-4.745.756-6.87 1.655-9.14 3.87-1.905 1.858-5.876 3.84-11.139 5.56-4.498 1.47-9.26 3.673-10.583 4.896-2.662 2.46-9.74 5.248-13.47 5.304-1.323.014-3.488.897-4.81 1.949-1.324 1.051-3.571 1.922-4.995 1.934-1.424.012-2.857.462-3.184 1-.871 1.432-4.57 1.193-7.936-.513-4.252-2.156-17.936-2.241-22.73-.14-4.098 1.795-8.837 2.145-9.706.716-.832-1.368-6.43-4.082-9.22-4.469-1.346-.187-19.314-.63-39.929-.988-44.39-.767-56.157-1.049-81.74-1.955l-19.242-.681-3.314 2.548c-3.668 2.82-6.56 3.126-13.002 1.374-3.98-1.083-4.494-1.005-6.57.978-2.527 2.413-7.994 2.87-13.02 1.09-2.527-.895-3.687-.712-7.385 1.164-3.975 2.018-4.725 2.108-7.97.95-1.97-.702-4.958-2.604-6.642-4.226-2.493-2.401-3.564-2.823-5.773-2.272-1.491.372-4.66 1.032-7.041 1.465-2.381.434-6.233 1.51-8.559 2.392-3.793 1.438-8.838 1.973-28.61 3.035-3.245.175-6.788.801-7.874 1.391-2.504 1.362-8.138 1.394-9.457.057-.553-.562-5.51-1.393-11.017-1.846-8.575-.707-11.322-1.401-19.151-4.845-10.104-4.443-11.691-4.736-13.523-2.493-3.414 4.182-13.763 5.751-20.82 3.157-2.736-1.005-3.642-.92-6.126.572-2.27 1.362-4.88 1.732-11.772 1.666-15.723-.15-24.355.812-26.237 2.927-1.884 2.115-8.152 2.565-12.472.895-1.957-.756-4.027-.528-8.794.969-9.747 3.06-21.316 3.279-30.626.578z" fill="#ececec"/><path d="M292.613 473.119c-4.233-1.228-9.974-3.233-12.758-4.455-5.768-2.533-10.787-2.304-18.994.867-2.646 1.022-6.76 2.13-9.14 2.464-7.566 1.058-26.796-2.396-32.541-5.846-2.977-1.788-3.177-1.788-7.627-.035-5.881 2.318-8.058 2.15-12.72-.987-3.354-2.256-4.176-2.433-6.873-1.477-3.612 1.28-20.711 1.467-21.46.236-.284-.468-2.21-1.125-4.278-1.461-2.069-.337-6.083-1.71-8.921-3.054-2.838-1.343-5.85-2.446-6.694-2.451-1.88-.012-4.401-2.77-4.86-5.315-.248-1.372-1.667-2.186-5.226-3.001-2.686-.615-7.016-2.358-9.62-3.874-3.66-2.129-6.068-2.782-10.585-2.868-4.824-.093-6.467-.592-9.381-2.852-2.837-2.2-3.533-3.389-3.533-6.034 0-1.811.724-4.576 1.608-6.143 2.097-3.713 1.411-5.232-4.388-9.724-2.644-2.048-4.832-4.29-4.862-4.98-.03-.69 1.5-2.188 3.4-3.328 3.099-1.858 3.392-2.385 2.84-5.102-1.718-8.473-1.71-9.469.087-11.487 2.99-3.36 6.672-4.74 12.074-4.527 6.238.247 10.062-1.525 13.056-6.046 4.296-6.487 11.993-7.095 17.27-1.365 1.27 1.38 3.224 2.3 4.877 2.3 3.742 0 12.54 2.706 16.21 4.985 3.199 1.986 7.653 2.406 9.938.937.9-.579 2.6-.38 4.81.562 2.195.936 4.623 1.223 6.786.803 5.893-1.146 18.885-.539 23.732 1.11 2.558.87 6.816 2.714 9.462 4.098 5.366 2.808 10.31 3.286 29.826 2.88 5.032-.104 6.621.365 12.387 3.654 6.314 3.601 6.773 3.715 10.103 2.495 1.918-.703 5.22-2.403 7.336-3.777 5.093-3.307 14.496-4 21.808-1.606 7.094 2.322 15.173 6.276 18.536 9.073 2.314 1.925 3.438 2.221 6.254 1.651 1.888-.382 6.847-.75 11.02-.82 5.66-.093 7.785-.497 8.37-1.592.431-.807 2.377-5.17 4.325-9.698 3.399-7.898 3.493-8.412 2.327-12.715-.668-2.466-1.174-6.404-1.125-8.751.094-4.485 3.336-15.241 5.347-17.74.65-.808 1.64-2.568 2.2-3.913.562-1.345 2.596-4.361 4.523-6.703 4.798-5.834 5.066-7.691 2.006-13.94-2.344-4.79-2.604-6.433-2.813-17.799-.254-13.782-.844-15.428-4.864-13.566-2.722 1.26-9.08 1.497-13.899.518-1.704-.347-4.609-2.214-6.466-4.157-3.358-3.514-3.404-3.528-11.7-3.538-7.267-.009-8.882-.34-12.657-2.598-2.38-1.424-5.698-4.17-7.373-6.104-2.94-3.393-3.273-3.514-9.658-3.514-4.714 0-7.698-.562-10.388-1.957-2.076-1.076-4.236-1.956-4.8-1.956-1.214 0-2.915-1.976-6.462-7.505-2.627-4.096-3.137-4.342-11.83-5.712-2.116-.334-5.796-1.568-8.178-2.742-3.512-1.733-4.811-3.15-6.884-7.515-2.75-5.79-5.326-7.788-10.076-7.81-6.745-.033-15.3-5.865-16.264-11.088-.318-1.721-.128-4.333.422-5.804.862-2.306.705-2.867-1.139-4.07-1.176-.769-4.087-1.685-6.469-2.037-2.381-.351-6.495-1.846-9.14-3.322-5.231-2.917-7.06-6.253-7.161-13.063-.03-2.017-.38-3.699-.776-3.737-17.352-1.673-23.284-3.265-28.24-7.577-3.652-3.179-3.881-3.683-3.586-7.9l.316-4.504-16.357-.029c-13.692-.023-17.766-.386-25.015-2.228-10.072-2.56-14.913-4.652-14.913-6.446 0-1.589 1.692-6.99 3.388-10.814 2.278-5.136-.281-7.097-8.68-6.65-1.058.057-5.605-.364-10.102-.934-4.498-.57-9.045-1.11-10.103-1.199-2.466-.208-16.08-7.048-21.58-10.842-6.54-4.513-15.237-13.076-16.213-15.963-.665-1.969-.453-3.319.87-5.538 3.602-6.038 5.654-10.234 5.654-11.562 0-.753-2.54-2.746-5.646-4.428-3.105-1.683-6.189-3.725-6.853-4.538-.664-.813-1.708-1.479-2.32-1.479-1.587 0-12.226-11.291-16.313-17.313l-3.453-5.087 4.776-5.672c2.627-3.12 4.78-6.154 4.784-6.743.012-1.476-2.888-3.931-5.658-4.792-6.957-2.16-27.099-27-25.652-31.636 1.133-3.63 9.105-8.05 18.218-10.102 7.72-1.74 11.02-1.913 27.533-1.45 10.319.288 23.524.988 29.345 1.556 13.735 1.338 71.83 3.006 104.472 3 32.49-.006 55.126-.79 74.005-2.563 8.202-.77 18.81-1.615 23.572-1.877 4.763-.263 10.462-.68 12.665-.927 6.403-.719 24.36 1.21 26.878 2.887 1.233.82 2.846 1.493 3.584 1.493 1.904 0 9.765 7.249 12.194 11.244 4.009 6.594 5.652 15.069 5.158 26.606-.248 5.811-1.067 14.087-1.818 18.39-2.693 15.422-3.319 26.305-1.837 31.963.75 2.863 1.368 6.36 1.374 7.771.014 3.213 3.252 10.795 6.973 16.326 4.352 6.472 15.513 16.382 22.683 20.141 2.533 1.328 3.815 1.463 6.254.657 1.687-.558 6.315-.992 10.284-.964 3.969.028 8.355-.39 9.747-.93 1.578-.61 4.366-3.862 7.4-8.628 2.679-4.207 6.194-9.243 7.813-11.192 1.618-1.948 2.942-3.8 2.942-4.118 0-.316 2.07-2.712 4.598-5.324 2.776-2.867 5.149-6.467 5.989-9.086.764-2.386 2.375-5.83 3.58-7.653 1.204-1.824 2.19-3.693 2.19-4.155 0-.462 1.515-2.984 3.367-5.604 1.852-2.621 3.367-5.118 3.367-5.55 0-.431.729-1.602 1.619-2.602 1.303-1.464 1.702-4.477 2.047-15.464.64-20.412 1.103-20.004-27.72-24.521-3.968-.622-11.055-2.008-15.749-3.08-4.92-1.124-9.981-1.71-11.952-1.385-6.811 1.124-14.118-5.46-13.858-12.485.235-6.373 6.261-16.786 11.825-20.433 3.7-2.425 16.551-4.638 26.162-4.504 12.831.18 17.596-.774 23.376-4.675L433.36 0l8.03 1.194c8.176 1.215 17.036 5.167 23.308 10.395 3.84 3.201 12.491 7.42 19.717 9.617 5.898 1.792 9.766 4.899 9.766 7.843 0 .693-1.082 2.567-2.405 4.166-1.323 1.598-2.406 3.39-2.406 3.983s2.706 4.077 6.014 7.742c7.487 8.298 13.142 21.097 16.569 37.496 1.277 6.11 2.805 12.87 3.395 15.023.591 2.151 1.686 6.933 2.434 10.625.748 3.692 1.774 7.22 2.281 7.841.507.62 1.83 5.302 2.943 10.404 3.08 14.131 5.708 23.365 7.395 25.983 1.387 2.152 2.188 2.37 8.87 2.412 13.575.087 17.657.769 20.359 3.4 3.315 3.228 5.168 3.061 12.003-1.082 5.594-3.391 19.724-17.017 19.724-19.02 0-.544 1.087-2.74 2.416-4.88 3.062-4.93 5.136-11.115 5.59-16.672.195-2.387.6-5 .9-5.807 1.352-3.641 1.503-6.515.587-11.15-1.44-7.289-2.955-22.751-2.836-28.952.122-6.323 4.054-20.15 7.51-26.409 4.787-8.665 13.983-16.508 23.356-19.917 1.323-.481 5.436-1.213 9.14-1.625a445.863 445.863 0 0 0 13.911-1.83c6.034-.906 9.63-.756 22.61.948 16.466 2.16 23.667 3.012 45.742 5.405 7.674.832 17.415 1.893 21.649 2.357 4.233.465 13.542.881 20.686.924 7.143.043 16.885.492 21.648.997 11.215 1.189 72.2 1.652 88.997.676 7.144-.415 17.752-1.248 23.573-1.851 19.889-2.061 30.082-.719 42.057 5.538 8.442 4.411 11.92 7.916 10.948 11.03-.954 3.056-17.08 15.727-26.547 20.859-8.117 4.4-9.492 6.811-5.816 10.194 2.195 2.02 6.779 10.598 6.779 12.687 0 1.867-5.282 6.859-9.599 9.072-1.864.956-4.04 2.259-4.833 2.896-1.955 1.567-12.506 7.173-13.501 7.173-1.221 0-7.58 4.3-7.626 5.157-.022.415 1.583 2.616 3.568 4.89 1.984 2.275 4.662 5.676 5.95 7.559a422.103 422.103 0 0 0 4.19 6.001c2.833 3.958 1.42 6.274-7.344 12.04-8.18 5.383-19.677 11.302-21.95 11.302-.725 0-3.536.824-6.246 1.83-2.71 1.007-8.221 2.145-12.248 2.529-4.64.442-8.071 1.315-9.37 2.384-1.965 1.618-1.985 1.815-.47 4.79 2.201 4.33 2.982 11.168 1.58 13.834-1.543 2.93-15.667 9.723-23.838 11.466-9.715 2.073-21.374 3.122-35.552 3.2-7.883.042-12.932.464-13.326 1.113-.349.574-.106 3.892.54 7.373 1.048 5.646.998 6.528-.47 8.177-.904 1.016-3.446 2.138-5.648 2.494-2.202.356-6.385 1.351-9.295 2.212-3.375.998-9.473 1.613-16.837 1.699-14.578.17-13.643-.034-15.368 3.357-3.368 6.622-9.761 11.174-17.31 12.325-5.35.815-5.71 1.105-8.352 6.75-1.339 2.86-3.464 5.55-5.192 6.573-3.51 2.078-15.308 4.726-21.061 4.726-4.33 0-9.207 2.847-9.207 5.375 0 .727-1.069 2.612-2.374 4.19-2.7 3.26-9.77 5.134-16.545 4.383-3.445-.382-4.18-.123-5.256 1.851-.687 1.263-1.151 2.646-1.03 3.074.468 1.664-4.898 9.487-7.338 10.697-2.886 1.431-8.194 1.407-14.48-.066-2.314-.542-4.765-.768-5.446-.502-.682.265-2.85 3.282-4.818 6.703-4.161 7.234-6.84 8.779-14.01 8.079-4.058-.397-5.196-.138-6.723 1.528-1.01 1.103-1.838 2.32-1.838 2.706 0 .385-1.917 1.843-4.26 3.239-4.708 2.805-12.205 3.42-17.745 1.457-2.311-.819-3.395-.79-4.474.12-2.312 1.95-1.653 5.19 2.2 10.824 5.707 8.342 9.503 23.866 10.323 42.212.275 6.163 1.07 11.172 2.249 14.183 8.747 22.335 11.086 33.69 8.872 43.072-.649 2.748-2.183 5.884-3.49 7.133-2.836 2.708-2.92 3.98-.413 6.286 2.147 1.975 4.597 2.065 15.879.58 17.402-2.289 29.001-3.497 31.269-3.257 1.323.14 6.64-.453 11.817-1.316 5.176-.863 9.938-1.365 10.583-1.114.645.25 3.821.086 7.058-.365a459.688 459.688 0 0 1 10.103-1.29c18.835-2.099 29.742-3.184 32.6-3.245 1.851-.04 4.648-.306 6.213-.592 1.565-.285 4.92-.809 7.456-1.163 5.355-.75 6.003-1.492 5.71-6.543-.288-4.962 1.196-5.418 10.324-3.177 4.036.992 7.772 1.832 8.3 1.867.53.036 1.862.588 2.961 1.227 1.1.639 5.25 1.461 9.223 1.827 7.896.728 11.39-.316 11.39-3.402 0-2.678 2.536-4.532 4.237-3.097 2.622 2.212 14.633 5.218 23.664 5.922 7.3.569 11.077 1.488 18.762 4.565 9.448 3.783 9.626 3.913 9.88 7.236.516 6.707 1.05 7.785 3.863 7.785 1.453 0 4.257.88 6.232 1.956 1.975 1.076 5.02 1.956 6.769 1.956 3.508 0 5.487 1.455 5.487 4.032 0 1.965-3.479 3.283-12.434 4.71-4.744.756-6.869 1.656-9.14 3.872-1.905 1.857-5.876 3.839-11.138 5.558-4.498 1.47-9.26 3.673-10.584 4.897-2.661 2.46-9.74 5.248-13.47 5.304-1.323.02-3.487.896-4.81 1.948-1.323 1.052-3.57 1.923-4.995 1.935-1.424.012-2.857.462-3.184 1-.87 1.433-4.57 1.193-7.936-.513-4.252-2.157-17.935-2.242-22.729-.141-4.098 1.795-8.838 2.145-9.707.716-.832-1.369-6.43-4.082-9.22-4.47-1.346-.186-19.314-.63-39.929-.987-44.39-.767-56.156-1.049-81.74-1.955l-19.242-.681-3.314 2.548c-3.667 2.82-6.56 3.126-13.002 1.375-3.98-1.082-4.493-1.006-6.57.978-2.526 2.412-7.994 2.87-13.019 1.089-2.527-.896-3.688-.713-7.386 1.165-3.975 2.018-4.725 2.107-7.969.95-1.97-.703-4.96-2.604-6.643-4.226-2.493-2.402-3.563-2.823-5.772-2.272-1.492.371-4.66 1.03-7.042 1.465-2.381.433-6.233 1.51-8.558 2.391-3.794 1.438-8.839 1.973-28.61 3.036-3.245.174-6.789.8-7.875 1.391-2.503 1.362-8.138 1.394-9.457.053-.553-.562-5.51-1.393-11.017-1.846-8.575-.706-11.322-1.401-19.151-4.845-10.103-4.443-11.691-4.736-13.523-2.493-3.414 4.182-13.763 5.752-20.82 3.157-2.735-1.005-3.641-.92-6.126.571-2.27 1.363-4.88 1.732-11.771 1.666-15.724-.15-24.356.813-26.238 2.928-1.883 2.115-8.151 2.565-12.472.895-1.956-.756-4.026-.528-8.794.969-9.747 3.06-21.316 3.279-30.626.579zm31.368-6.646c3.871-2.897 5.99-6.895 4.47-8.439-1.518-1.544-5.206-1.408-8.268.305-1.405.786-5.585 2.063-9.289 2.838-3.704.775-8.078 1.965-9.72 2.644-3.306 1.367-6.155.734-6.155-1.367 0-1.41 5.79-4.047 11.342-5.166 5.065-1.02 3.04-2.718-4.953-4.152-8.803-1.58-11.03-.933-16.536 4.8l-3.686 3.836 2.182 2.36c3.608 3.905 11.72 5.428 26.328 4.943 9.917-.33 11.676-.65 14.285-2.602zm17.006.652c2.7-1.922 2.714-4.087.047-6.973-2.475-2.677-4.33-2.855-6.732-.645-2.265 2.083-2.218 3.394.234 6.563 2.302 2.975 3.484 3.168 6.451 1.055zm-86.378-.946c5.21-1.018 7.697-3.038 7.697-6.252 0-4.66-3.823-5.116-16.414-1.959-14.546 3.648-15.337 3.897-15.337 4.836 0 1.594 6.026 3.563 11.49 3.754 2.88.1 5.446.396 5.703.658.257.261 1.149.283 1.98.048.833-.235 3.029-.723 4.88-1.085zm187.782-2.084c2.206-2.03 2.228-3.552.075-5.367-4.973-4.196-26.358-9.704-29.994-7.726-3.726 2.027-1.728 5.908 3.04 5.908 1.5 0 3.866.758 5.257 1.685 2.935 1.955 10.825 5.041 15.684 6.135 1.852.417 3.55.809 3.773.87.223.063 1.197-.615 2.164-1.505zm88.764.151c.038-.538-.906-1.119-2.096-1.29-2.11-.305-2.85.758-1.49 2.139.934.95 3.503.342 3.586-.849zm-173.724-.823c1.51-1.849.387-2.6-3.882-2.6-3.923 0-4.776 1.215-2.005 2.856 2.348 1.39 4.624 1.29 5.887-.256zm-147.763-3.925c.745-2.287.553-3.154-1.066-4.8-1.88-1.91-2.095-1.929-4.443-.364-4.293 2.86-2.651 8.845 2.262 8.243 1.59-.195 2.629-1.18 3.247-3.079zm169.604 2.194c.96-1.58-1.12-2.548-4.963-2.31-3.765.232-4.73.829-3.802 2.354.84 1.38 7.92 1.345 8.765-.044zm350.873-.566c1.769-1.026.597-4.21-1.77-4.814-2.805-.716-10.016 1.152-10.016 2.594 0 .516-.026 1.269-.057 1.672-.138 1.795 8.966 2.216 11.843.548zm-332.707-.221c-1.66-1.628-6.708-1.7-5.724-.082.327.538 1.954.978 3.616.978 1.855 0 2.67-.346 2.108-.897zm77.831-2.857c2.576-2.733 2.724-5.897.288-6.136-5.434-.535-9.278 2.188-9.278 6.574 0 3.55 5.484 3.283 8.99-.438zm287.321 1.325c1.512-.95 1.196-2.191-1.116-4.38-2.67-2.53-9.553-2.75-11.487-.369-.78.96-.926 1.764-.358 1.962.529.184 2.26 1.16 3.848 2.17 2.717 1.726 6.897 2.01 9.113.617zm-572.681-1.765c4.909-1.352 13.351-9.417 12.425-11.87-.813-2.154-4.257-1.927-11.89.783-14.336 5.089-22.2 6.896-24.788 5.698-2.379-1.102-5.337-.696-5.337.732 0 2.316 5.526 4.48 15.876 6.215 2.742.46 8.94-.244 13.714-1.558zm86.276.361c2.282-2.563 1.572-6.067-1.592-7.867-2.379-1.353-2.878-1.339-5.292.145-3.276 2.015-3.779 4.07-1.76 7.2 1.9 2.95 6.249 3.213 8.644.522zm420.63.453c1.736-1.291 1.707-1.38-.657-1.984-4.602-1.174-80.108-.01-80.519 1.242-.273.834 3.882 1.116 15.636 1.06 8.804-.042 16.161.08 16.35.27.188.19 10.924.44 23.856.555 18.743.166 23.883-.065 25.333-1.143zm78.21.528c2.349-1.511.436-3.996-3.077-3.996-3.959 0-4.741.687-3.49 3.063 1.013 1.925 4.301 2.392 6.567.933zm-545.981-.982l11.872-3.613c11.606-3.533 10.926-5.919-1.753-6.15-3.907-.071-6.636.557-10.151 2.338-5.073 2.57-9.04 5.81-9.04 7.384 0 1.192 5.208 1.216 9.072.04zm235.31-3.44c0-3.374-2.063-6.074-3.806-4.98-1.683 1.058-1.194 7.157.66 8.211 2.343 1.334 3.147.509 3.147-3.232zm21.168 1.893c.956-1.17.956-1.763 0-2.934-.659-.807-1.763-1.467-2.455-1.467-1.673 0-4.28 2.723-4.28 4.471 0 1.89 5.178 1.837 6.735-.07zm7.456-.76c1.866-1.468 1.475-4.62-.572-4.62-2.345 0-5.342 3.447-4.632 5.327.568 1.506 2.772 1.206 5.204-.707zm39.558-.723c1.285-2.149 1.795-5.063 1.877-10.715.104-7.261-.051-7.894-2.39-9.765-3.269-2.613-10.424-2.78-11.744-.273-.903 1.716-1.343 7.062-1.171 14.242.193 8.13 9.701 12.74 13.428 6.51zm73.245 2.217c-.005-.404-4.01-.854-8.9-1.001-6.214-.187-8.457.03-7.448.718 1.66 1.134 16.36 1.389 16.348.283zm-245.774-2.645c2.253-2.291 2.361-2.957 2.361-14.523v-12.123l-3.695-1.693c-3.347-1.535-4.02-1.557-7.138-.232-3.911 1.661-5.523 4.097-5.523 8.347 0 1.614-.384 3.963-.854 5.219-.51 1.362-.473 4.532.089 7.85.791 4.67 1.432 5.884 3.981 7.544 4.117 2.681 7.892 2.545 10.779-.39zm143.24-.388c1.069-2.1 1.146-3.067.314-3.913-2.71-2.755-6.493-.447-6.493 3.963 0 3.921 4.176 3.887 6.18-.05zm50.126.449c1.226-1.903 1.385-3.987.852-11.163-.36-4.852-1.013-9.411-1.45-10.13-1.052-1.73-10.91-1.76-12.604-.037-.847.862-1.25 4.216-1.25 10.412 0 11.362 1.187 13.257 8.305 13.257 3.83 0 4.902-.407 6.147-2.339zm20.136-.932c1.932-2.575 2.454-4.397 2.454-8.565 0-9.979-2.125-13.823-8.3-15.014-7.815-1.507-10.051 2.938-8.292 16.482 1.147 8.838 2.338 10.368 8.068 10.368 2.97 0 4.054-.584 6.07-3.27zm-194.922.24c3.545-1.257 3.688-1.759 4.364-15.28.575-11.486-.118-12.99-5.979-12.984-5.007.005-9.764 3.167-9.904 6.584-.685 16.69-.093 21.31 2.831 22.096 2.961.796 5.628.668 8.688-.417zm25.083-1.502c1.698-2.193 1.995-3.95 1.995-11.801 0-5.074-.439-10.057-.974-11.074-2-3.8-12.297-5.072-15.412-1.904-1.782 1.81-1.906 2.827-1.41 11.492.299 5.229.758 10.516 1.02 11.75.572 2.69 3.34 3.968 8.768 4.052 3.237.05 4.407-.44 6.013-2.515zm52.988-2.395c0-3.742-2.267-3.406-2.71.402-.216 1.852.135 2.614 1.203 2.614 1.042 0 1.507-.93 1.507-3.016zm59.171 1.06c0-1.726-5.97-2.635-7.447-1.135-1.69 1.72.322 3.206 3.929 2.9 2.356-.2 3.518-.783 3.518-1.765zm131.95.944c26.913-.027 50.34-.299 52.06-.605 2.45-.437 3.126-1.038 3.126-2.782 0-2.923-3.35-3.438-15.394-2.368-5.027.446-17.367 1.062-27.421 1.369-10.054.306-24.342.756-31.75.999-7.41.243-20.506.452-29.105.464-13.037.019-15.635.26-15.635 1.447 0 1.09 1.64 1.492 6.975 1.712 3.837.158 7.254.18 7.595.05.34-.131 22.638-.26 49.55-.286zm-361.437-1.889c.836-1.589.593-2.202-1.402-3.53-2.434-1.622-5.316-1.334-5.316.532 0 1.274 3.54 4.92 4.777 4.92.51 0 1.384-.864 1.94-1.922zm153.771-1.819c-.486-4.17-7.085-6.884-18.102-7.445-10.016-.51-12.693.245-10.953 3.09.78 1.273 2.914 1.93 7.956 2.448 3.79.39 7.721 1.16 8.735 1.712 1.013.551 2.629 1.01 3.59 1.017.96.008 2.829.592 4.152 1.299 3.244 1.733 4.978.938 4.622-2.12zm300.54 2.123c2.346-2.158 2.219-3.913-.405-5.58-1.685-1.071-3.735-1.195-9.254-.56-3.9.45-7.338 1.07-7.64 1.377-1.021 1.038 2.265 3.442 6.587 4.82 5.862 1.868 8.636 1.854 10.712-.057zm-515.763-2.783c3.477-2.847 3.944-4.055 2.238-5.79-2.425-2.465-4.035-1.817-5.273 2.123-.635 2.017-1.534 4.086-2 4.597-2.82 3.098.97 2.399 5.035-.93zm489.144 2.439c.764-1.257-1.939-2.343-3.914-1.572-1.928.752-.866 2.557 1.504 2.557.996 0 2.08-.443 2.41-.985zm77.18-.113c1.728-1.756.296-3.793-2.665-3.793-2.997 0-4.264 1.28-3.437 3.47.635 1.68 4.562 1.889 6.102.323zM327.25 448.47c3.562-.631 8.66-4.649 7.765-6.12-.443-.728-6.244-1.069-17.74-1.04-17.87.044-22.635-.752-22.079-3.688.29-1.532 2.11-1.65 21.237-1.38 18.45.261 20.92.116 20.92-1.232 0-5.8-26.901-9.388-45.333-6.046-9.894 1.795-11.623 2.824-11.249 6.698.864 8.95 27.244 16.22 46.48 12.808zm-110.886-2.13c3.473-3.032.81-9.97-3.827-9.97-6.713 0-8.203 9.248-1.883 11.678 2.239.86 3.044.62 5.71-1.708zm-56.766.406c1.952-1.507 2.292-7.41.529-9.202-.635-.646-2.374-1.174-3.864-1.174-2.142 0-3.041.707-4.293 3.377-1.753 3.735-.909 5.81 3.024 7.43 2.604 1.073 2.662 1.068 4.604-.431zm15.635-.473c6.824-2.152 11.064-4.081 11.064-5.036 0-1.296-11.003-2.933-14.415-2.144-3.673.848-6.524 4.681-5.5 7.394.773 2.047 1.751 2.024 8.85-.214zm595.508-1.317c1.928-2.798 1.89-3.297-.426-5.651-1.634-1.661-3.207-1.957-10.423-1.957-4.675 0-8.784.29-9.133.644-1.01 1.026 1.33 3.269 3.41 3.269 1.806 0 3.27.614 9.892 4.149 3.974 2.121 4.951 2.055 6.68-.454zm-283.094-.398c1.916-1.204-.726-2.32-5.493-2.32-5.151 0-6.967.97-5.706 3.045.632 1.039 9.283.479 11.2-.725zm134.017.017c11.642-.328 24.198-.705 27.902-.838 39.645-1.43 52.205-1.571 54.632-.618 2.025.796 5.129.638 12.749-.647 5.54-.934 10.071-2.002 10.071-2.373 0-1.84-20.527-2.685-35.599-1.463-15.646 1.267-20.472 1.424-63.982 2.072-23.284.346-43.308.841-44.499 1.1-2.322.502-2.942 2.883-.962 3.697.662.272 5.1.308 9.862.08 4.763-.227 18.185-.682 29.826-1.01zm-352.557-.958c6.237-1.857 7.052-2.523 6.247-5.102-.917-2.938-2.721-3.382-16.897-4.162-11.031-.607-18.714-1.424-31.63-3.363-5.158-.774-5.011-4.406.177-4.393 1.689.005 7.833.657 13.654 1.448 12.14 1.652 29.345 1.959 29.345.523 0-1.343-3.792-3.682-7.216-4.45-1.587-.357-4.826-1.366-7.197-2.242-3.177-1.174-7.734-1.597-17.319-1.608-11.945-.014-13.4.184-17.818 2.42-6.335 3.206-6.873 5.915-1.744 8.788 7.125 3.992 9.476 5.36 12.809 7.454 1.852 1.164 6.211 2.64 9.687 3.279 3.476.64 6.94 1.561 7.697 2.048 2.23 1.434 14.55 1.044 20.205-.64zm196.21-4.268c0-2.074-1.866-3.957-3.92-3.957-2.414 0-3.376 5.967-1.222 7.568 1.341.997 1.96.926 3.391-.391.963-.886 1.751-2.335 1.751-3.22zm-319.43 2.445c0-1.599-5.794-3.066-8.279-2.096-1.263.492-1.333.884-.37 2.063 1.597 1.957 8.65 1.984 8.65.033zm299.517.104c.274-.726.322-12.422.107-25.992-.259-16.332-.044-25.33.634-26.619.564-1.07 1.226-5.33 1.472-9.465.528-8.881.907-12.293 1.834-16.5.568-2.574.259-3.55-1.782-5.624-3.754-3.816-6.172-3.296-8.39 1.804-1.033 2.372-2.126 5.783-2.43 7.58-.304 1.797-.907 4.147-1.34 5.223-1.097 2.72-2.749 14.144-3.394 23.474-.297 4.304-.738 10.026-.979 12.715-.24 2.69-.61 6.872-.82 9.292-.211 2.421-.667 7.043-1.013 10.27-.346 3.228-.286 6.375.133 6.994.42.62 3.228 2.271 6.24 3.671 3.013 1.4 5.745 2.985 6.07 3.521.856 1.407 3.076 1.198 3.658-.344zm353.775-2.062c10.262-.294 12.508-.923 12.508-3.504 0-2.532-2.339-3.013-15.15-3.116-13.34-.107-15.639.431-15.639 3.66 0 2.99 2.584 4.567 6.254 3.814 1.588-.326 7-.71 12.027-.854zm-342.521-1.51c0-1.086-.642-1.956-1.443-1.956-1.74 0-1.86 1.142-.289 2.739 1.553 1.578 1.732 1.497 1.732-.782zm14.759.546c.635-1.684-.754-7.025-2.329-8.954-1.255-1.538-4.338-1.836-5.151-.498-.562.925 1.867 7.574 3.523 9.64 1.315 1.642 3.301 1.547 3.957-.188zm9.142-.105c.877-.784-2.51-7.733-4.376-8.976-3.488-2.324-5.895.94-2.688 3.645.794.67 1.443 2.19 1.443 3.38s.294 2.46.652 2.825c.566.576 4.03-.034 4.969-.874zm15.17-.853c.746-1.978-1.14-5.12-3.442-5.731-1.609-.428-1.954-.052-1.954 2.127 0 4.195 4.13 6.954 5.396 3.604zm7.111-.838c0-1.283-2.886-4.618-3.997-4.618-1.196 0-.99 4.319.266 5.596 1.227 1.248 3.731.592 3.731-.978zm10.584.761c1.704-2.087-.397-4.401-3.997-4.401-2.92 0-4.32 1.838-3.352 4.401.316.84 1.752 1.468 3.352 1.468 1.54 0 3.338-.66 3.997-1.468zM487.74 437c.716-1.897-1.486-5.933-3.446-6.317-1.154-.226-1.66.313-1.66 1.768 0 4.502 3.835 7.917 5.106 4.549zm173.172-1.1c28.285-.462 34.335-1.1 32.894-3.472-1.157-1.903-88.525 2.176-90.543 4.227-.375.382 5.776.477 13.67.212 7.893-.266 27.684-.7 43.979-.967zm-538.696-1.641c1.323-1.92 1.278-2.364-.492-4.89-1.07-1.529-2.768-2.78-3.771-2.78-3.205 0-5.1 6.129-2.663 8.608 1.82 1.849 5.334 1.373 6.926-.938zm78.662.044c3.941-1 8.398-4.234 7.333-5.32-1.596-1.63-11.624-3.54-22.877-4.36-14.284-1.042-17.847-1.704-19.4-3.606-1.542-1.888.654-3.407 4.006-2.77 7.134 1.355 34.698 3.715 35.373 3.03.9-.915-.926-2.378-6.25-5.012-5.097-2.52-6.658-2.78-19.11-3.162-11.147-.343-14.09-.137-16.549 1.155-1.644.865-3.853 1.572-4.907 1.572-1.055 0-2.56.932-3.344 2.07-4.055 5.885 6.757 11.908 29.7 16.546 3.175.641 6.206 1.291 6.735 1.444 1.026.296 3.619-.147 9.29-1.587zm223.444.52c.321-.85.588-6.022.592-11.493.006-9.266.884-19.88 2.46-29.752.817-5.11-.48-5.387-5.354-1.148l-3.368 2.929v32.697l-3.836.318c-4.415.365-5.606 1.668-4.13 4.52 1.535 2.97 2.649 3.445 8.104 3.461 3.634.011 5.103-.396 5.532-1.532zm312.076 0c2.242-.462 2.925-2.75 1.153-3.863-1.719-1.08-18.874-.7-21.017.466-3.42 1.86-2.46 3.816 2.065 4.207 4.353.377 14.208-.073 17.8-.81zm24.854-.408c6.282 0 8.1-.306 8.1-1.363 0-.75-.577-1.587-1.282-1.862-2.202-.86-16.45-.69-17.86.213-1.83 1.169-.557 4.377 1.429 3.602.832-.325 5.158-.59 9.613-.59zm-615.847-.979c.354-.582-.791-.978-2.83-.978-1.883 0-3.424.44-3.424.978s1.274.979 2.83.979 3.097-.44 3.424-.979zm386.61-5.534c1.08-1.096-1.392-3.268-3.718-3.268-3.21 0-5.253.991-5.253 2.55 0 .954 1.247 1.362 4.17 1.362 2.293 0 4.454-.29 4.802-.644zm240.704-2.78c0-2.45-.422-2.983-2.563-3.235-1.91-.225-2.727.223-3.207 1.758-.82 2.628 1.144 5.084 3.762 4.704 1.526-.222 2.008-.996 2.008-3.226zm-622.975.968c1.356-1.66-.19-5.003-2.654-5.741-8.27-2.476-28.198-3.757-28.843-1.854-.419 1.234 6.317 4.735 14.17 7.364 5.623 1.883 15.867 2.02 17.327.23zm395.832.884c.837-.326 1.522-1.017 1.522-1.535 0-1.36-4.104-.547-4.575.906-.432 1.332.67 1.559 3.053.63zm136.221-.249c0-.463-1.082-.632-2.405-.375-1.323.257-2.406.637-2.406.843 0 .206 1.083.375 2.406.375 1.323 0 2.405-.38 2.405-.843zm57.488-.705c2.73-.562 2.826-3.409.197-5.828-1.745-1.605-2.452-1.678-6.268-.64-2.365.643-5.28 1.17-6.477 1.17-1.198 0-3.133.679-4.3 1.51-1.425 1.015-2.679 1.228-3.822.649-2.378-1.206-7.227-.922-7.682.45-.354 1.065 5.07 2.581 12.717 3.554 3.035.386 11.956-.107 15.635-.865zm-395.941-2.668c2.385-3.073 2.087-6.096-.83-8.428-3.2-2.56-6.538-2.586-9.01-.072-2.797 2.843-2.492 7.23.68 9.766 3.086 2.469 6.642 1.977 9.16-1.266zm342.482 2.57c-.695-.283-1.524-.248-1.844.077-.32.325.248.556 1.263.513 1.12-.046 1.348-.278.58-.59zm-207.048-1.263c1.824-1.172.46-2.689-3.424-3.804-3.396-.976-5.227-.47-5.227 1.446 0 2.495 5.925 4.11 8.65 2.358zm-187.85-.642c2.607-.71 2.88-3.817.45-5.138-2.288-1.246-6.545 1.873-5.681 4.162.642 1.702 1.785 1.915 5.232.976zm227.433-1.714c3.338-2.99 5.34-7.456 7.075-15.781 2.44-11.707 1.518-24.747-1.676-23.722-.658.212-2.496 2.83-4.083 5.819-1.588 2.988-4.51 7.254-6.495 9.479-4.185 4.692-4.44 6.904-1.764 15.342 1.014 3.198 2.104 7.024 2.424 8.504.7 3.247 1.246 3.29 4.519.36zm274.454.129c2.51-4.046-6.142-7.515-10.531-4.222-2.32 1.74-1.237 3.08 4.025 4.984 4.278 1.548 5.135 1.447 6.506-.762zm-518.964-.2c0-1.192-5.264-5.552-9.602-7.952-6.509-3.601-7.454-4.845-5.42-7.13 1.274-1.431 1.35-1.995.373-2.765-3.794-2.988-8.443-2.425-8.443 1.024 0 3.503 7.18 12.378 10.013 12.378.707 0 3.615 1.075 6.46 2.389 5.265 2.43 6.619 2.85 6.619 2.057zm233.559-.385c1.616-.199 1.47-3.129-.272-5.47-.777-1.044-1.412-2.793-1.412-3.885 0-1.093-1.721-3.54-3.825-5.438l-3.825-3.45-1.54-12.226c-.847-6.724-1.832-17.596-2.189-24.16-.364-6.702-1.127-12.42-1.74-13.043-.6-.61-2.115-.961-3.367-.781-2.134.307-2.272.725-2.219 6.685.032 3.497.591 13.483 1.244 22.192.85 11.35.912 18.553.22 25.431-.738 7.317-.69 9.87.2 10.755 2.286 2.271 12.61 4.14 18.725 3.39zm58.873-1.713c.762-.727 1.195-1.467.962-1.644-.233-.178-2.924-2.451-5.98-5.053-3.055-2.602-5.847-4.435-6.204-4.072-.942.958 1.508 9.566 3.294 11.572 1.68 1.887 5.516 1.499 7.928-.803zm-254.129-.146c-.177-.942-1.62-2.152-3.207-2.69-3.304-1.12-10.08-6.15-10.08-7.483 0-1.798 2.894-1.946 5.976-.305 1.74.927 4.772 2.51 6.738 3.52 1.966 1.01 5.166 2.933 7.11 4.274 5.372 3.706 8.989 2.986 7.585-1.51-.59-1.89-2.337-3.022-12.016-7.796-5.697-2.81-16.44-5.86-20.64-5.86-3.706 0-5.796 2.472-4.691 5.552 1.168 3.257 7.93 10.79 11.121 12.388 1.73.867 5.234 1.587 7.787 1.599 3.907.019 4.59-.248 4.317-1.69zm65.58.061c.249-.227-.184-.833-.962-1.346-2.22-1.465-6.168-.653-6.54 1.345-.29 1.55.129 1.686 3.359 1.092 2.029-.373 3.893-.864 4.143-1.09zm21.676-.868c-2.2-1.69-6.395-1.5-6.982.318-.28.867.956 1.213 4.256 1.191 4.358-.03 4.529-.124 2.726-1.509zm134.89-1.15c-.833-4.215-2.465-8.069-3.417-8.069-1.265 0-2.6 1.994-3.839 5.736-1.418 4.282-.846 5.023 3.874 5.023 3.755 0 3.891-.108 3.381-2.69zm17.442-.053c.583-4.184-3.756-6.558-9.778-5.35-3.294.66-3.927 2.002-2.608 5.528.945 2.527 1.278 2.648 6.534 2.37 4.948-.263 5.57-.534 5.852-2.548zm-331.1-.717c2.63-1.751 2.833-3.207.572-4.09-.904-.352-6.701-4.08-12.882-8.282-6.18-4.203-11.503-7.642-11.826-7.642-.324 0-.588 1.142-.588 2.538 0 2.97 3.018 7.697 7.125 11.155 1.597 1.345 4.435 3.885 6.308 5.644 3.691 3.468 6.82 3.656 11.291.677zm193.12-11.945c-.447-13.718-.622-14.751-3.55-21.03-2.42-5.188-3.531-6.601-5.188-6.601-5.399 0-7.937 10.282-4.519 18.306 2.9 6.809 3.205 7.583 5.684 14.46 2.4 6.656 4.337 9.292 6.83 9.292.944 0 1.11-3.21.743-14.427zm164.198 12.33c.663-1.258.85-3.704.47-6.113a206.596 206.596 0 0 1-1.044-7.7c-.226-2.027-1.052-5.989-1.837-8.804a539.103 539.103 0 0 1-2.548-9.52c-2.669-10.471-3.09-11.173-7.178-11.964-2.096-.406-5.145-1.006-6.775-1.334l-2.963-.597-1.607 9.838c-2.147 13.138-2.06 14.69 1.112 19.76 3.468 5.545 17.115 18.531 19.473 18.531.986 0 2.29-.944 2.897-2.097zm179.605.874c-.454-1.384-2-1.232-2.485.245-.177.538.4.978 1.283.978.882 0 1.423-.55 1.202-1.223zm-473.68-2.27c2.2-2.237 1.853-5.037-.847-6.836-3.891-2.592-8.18-.416-8.21 4.167-.027 3.851 6.114 5.66 9.056 2.669zm199.898-12.646c-.727-33.813-1.148-45.32-1.715-46.821-.963-2.553-4.971-3.092-7.273-.977-1.89 1.737-1.958 2.507-1.38 15.521.77 17.323.857 35.238.192 39.41-.716 4.496 2.08 7.27 6.918 6.861l3.553-.3-.295-13.694zM116.881 414.72c1.369-2.228.435-2.21 21.31-.43 1.851.159 5.104.61 7.228 1.002 3.175.588 4.165.375 5.563-1.197 1.637-1.838 1.615-1.968-.572-3.426-2.835-1.888-18.917-3.877-24.728-3.058-2.38.336-6.076.819-8.211 1.073-2.136.255-4.939 1.273-6.23 2.263-2.307 1.77-2.316 1.834-.538 3.83 2.318 2.604 4.556 2.584 6.178-.057zm249.748.552c3.468-3.525.394-6.713-3.787-3.928-3.188 2.124-3.226 5.465-.061 5.465 1.285 0 3.017-.692 3.848-1.537zm101.093-.419c1.274-1.43 1.696-3.333 1.574-7.091-.286-8.785-1.027-18.6-1.437-19.016-.216-.22-.03-2.039.414-4.044.96-4.342-.368-19.449-1.84-20.946-.738-.75-1.449-.702-2.479.168-.832.702-2.583.975-4.13.645-1.477-.316-3.24-.21-3.92.235-1.38.906-2.94 8.41-3.594 17.282-.237 3.228-.685 8.51-.995 11.737-.31 3.228-.685 9.295-.833 13.483-.32 9.092.006 9.43 9.154 9.473 5.146.024 6.674-.34 8.086-1.926zm-82.911-1.376c.725-1.92-2.37-4.493-5.407-4.493-3.328 0-5.314 3.35-2.85 4.808 2.5 1.48 7.653 1.284 8.257-.315zm-145.98-1.33c.581-.394 1.57-1.708 2.198-2.919 2.267-4.376-2.93-8.647-7.497-6.161-2.668 1.451-2.921 8.467-.33 9.155 2.705.719 4.495.695 5.628-.074zm162.985-1.24c0-2.453-4.518-11.704-5.716-11.704-1.428 0-6.17 10.401-5.524 12.114.45 1.19 1.907 1.58 5.918 1.58 4.71 0 5.322-.23 5.322-1.99zm-43.017-1.186c8.81-6.268 18.964-17.306 18.964-20.615 0-2.653-3.673-6.532-6.182-6.527-3.98.007-8.09 3.575-9.24 8.02-.598 2.312-2.817 7.432-4.93 11.379-2.114 3.947-3.609 7.798-3.322 8.558.692 1.832 1.086 1.764 4.71-.815zm-166.11-2.217c.54-1.43-1.13-4.389-2.477-4.389-.363 0-1.485.613-2.492 1.362-1.556 1.156-1.638 1.597-.547 2.934 1.62 1.985 4.781 2.039 5.516.093zm34.018-2.417c0-3.557-12.41-10.292-21.166-11.485-5.911-.806-4.864 1.558 2.662 6.007 3.562 2.106 8.426 5.02 10.807 6.474 4.699 2.87 7.697 2.482 7.697-.996zm318.467 3.026c2.711-.762 3.866-4.743 1.768-6.095-.707-.456-3.747-.836-6.754-.844-4.595-.013-5.563.291-6.067 1.904-1.073 3.437 1.093 5.917 5.074 5.808 1.966-.053 4.657-.401 5.98-.773zm-372.347-1.893c0-2.407-3.21-5.116-9.862-8.323-5.825-2.808-6.585-3.866-3.881-5.405 1.174-.668 2.69-.4 5.253.93 4.074 2.113 4.642 2.233 4.642.983 0-1.274-8.051-5.886-11.5-6.588-3.402-.691-5.819.903-5.819 3.838 0 1.963 10.074 12.919 13.951 15.173 3.134 1.821 7.216 1.478 7.216-.608zm213.595-2.64c0-1.824-4.4-3.663-6.862-2.869-.989.319-1.797 1.43-1.797 2.47 0 1.588.691 1.89 4.33 1.89 3.238 0 4.329-.375 4.329-1.49zm-244.912-.386c.3-.495-1.297-1.931-3.551-3.192-3.08-1.722-4.175-2.97-4.408-5.022-.2-1.77-1.144-3.116-2.686-3.83-2.002-.928-2.692-.782-4.366.92-1.793 1.822-1.86 2.293-.68 4.79 2.31 4.898 13.756 9.517 15.691 6.334zm41.777-.416c.591-.724 1.34-2.664 1.664-4.311.489-2.487.171-3.273-1.872-4.634-2.829-1.884-5.93-1.27-7.367 1.46-2.431 4.619 4.402 11.371 7.575 7.485zm-64.114-1.995c1.168-1.803.828-5.176-.648-6.421-.762-.643-2.602-1.027-4.09-.854-2.307.27-2.75.811-3.02 3.696-.222 2.378.19 3.756 1.393 4.65 1.8 1.338 5.171.771 6.365-1.071zm389.143-3.78c2.884-3.236 8.956-13.278 8.956-14.813 0-.729.654-3.208 1.453-5.51 1.475-4.25 1.219-6.3-1.708-13.667-.534-1.345-1.16-4.2-1.39-6.344-.646-5.991-1.65-6.674-9.02-6.138-3.515.256-6.938.808-7.606 1.228-1.354.851-.839 14.799.94 25.437a440.93 440.93 0 0 1 1.855 12.51c.805 6.114 2.187 9.497 3.88 9.497.373 0 1.56-.99 2.64-2.2zm-117.207-2.264c3.823-4.941-.231-7.067-6.257-3.281-3.658 2.298-3.986 3.294-1.557 4.732 2.876 1.703 5.792 1.162 7.814-1.451zm152.427.417c3.558-1.48 5.14-4.846 5.965-12.693.824-7.831-.438-14.644-4.99-26.94-3.75-10.133-4.622-10.77-12.468-9.123-2.567.54-5.967 1.248-7.555 1.575-5.486 1.128-5.713 3.309-1.717 16.505 1.342 4.431 5.512 12.965 6.931 14.183.314.269 1.795 2.16 3.293 4.201 2.577 3.514 2.641 3.838 1.197 6.079-1.824 2.829-2.001 7-.323 7.573 1.762.602 6.578-.076 9.667-1.36zm-400.573-2.8c.422 0 1.313-1.34 1.98-2.978 1.851-4.543.065-7.78-4.293-7.78-3.357 0-5.346 1.928-5.346 5.182 0 2.318 3.948 6.725 5.486 6.125.773-.302 1.751-.549 2.173-.549zm246.47-7.934c2.624-1.358 15.93-16.843 16.716-19.453.405-1.344 1.328-3.313 2.05-4.374.723-1.061 1.314-3.32 1.314-5.021 0-3.53-.52-3.753-12.508-5.36-12.986-1.74-13.762-1.68-15.112 1.158-4.388 9.224-5.408 26.997-1.859 32.384 1.472 2.235 2.22 2.557 4.788 2.063 1.674-.322 3.748-.95 4.61-1.397zm32.635-3.512c.724-3.068 1.251-7.14 1.172-9.048-.289-6.971-.312-8.438-.2-12.555.133-4.81-1.268-7.053-4.402-7.053-2.353 0-2.488.225-5.89 9.781-2.79 7.837-2.824 10.2-.23 16.259 4.308 10.06 7.581 10.956 9.55 2.616zm-51.069-4.176c2.018-1.917 2.88-3.5 2.53-4.646-1.395-4.566-.372-12.385 2.45-18.728 3.65-8.204.047-9.55-4.93-1.84-5.853 9.07-9.994 22.254-8.353 26.6.92 2.44 4.99 1.76 8.303-1.386zm59.681-5.269c0-1.206.354-2.61.787-3.121.432-.511 1.341-3.252 2.02-6.091.973-4.072.985-5.467.057-6.603-1.596-1.955-4.44-1.817-5.221.253-.89 2.355.487 18.929 1.518 18.281.461-.29.84-1.513.84-2.719zm135.734-8.147c.342-1.715.056-6.336-.637-10.27-.692-3.933-1.281-9.028-1.31-11.322-.027-2.293-.447-4.934-.932-5.868-.485-.934-1.608-4.23-2.495-7.323-2.226-7.763-4.236-7.608-7.665.593-1.43 3.42-3.557 7.27-4.728 8.558-3.517 3.869-3.692 5.594-1.127 11.105 1.306 2.807 3.025 5.652 3.82 6.322.794.67 2.555 3.146 3.912 5.5 2.838 4.923 4.825 6.397 8.169 6.062 1.818-.183 2.516-.965 2.993-3.357zm-102.963-6.734c2.366-2.898 16.426-8.882 18.22-7.755.348.219 4.96-.22 10.251-.975 5.29-.755 13.7-1.644 18.687-1.977 4.988-.333 11.017-1.192 13.398-1.91 2.382-.717 6.278-1.62 8.66-2.004 12.563-2.033 18.968-12.27 19.874-31.767.535-11.507.704-21.081.589-33.256-.059-6.186.077-14.769.302-19.073.224-4.303.603-19.048.841-32.766s.687-31.984.998-40.591c.311-8.607.314-17.066.007-18.797-1.123-6.334 2.297-5.99-60.855-6.106-31.619-.058-66.798-.223-78.175-.366-11.378-.144-25.449-.019-31.27.278l-10.583.538-.7 6.847c-.385 3.766-.684 10.368-.666 14.672.019 4.303.032 8.265.03 8.803-.003.538-.307 23.205-.677 50.372-.37 27.166-.706 52.915-.748 57.219-.185 19.01 4.017 36.547 10.114 42.208 3.877 3.6 13.578 5.917 27.765 6.63 7.144.359 16.236 1.277 20.205 2.04 3.968.764 9.213 1.64 11.655 1.948 2.441.308 7.204 2.042 10.583 3.853 6.923 3.71 9.669 4.172 11.495 1.935zm-6.808-9.806c-4.481-2.452-11.25-3.925-22.114-4.814-3.44-.28-9.91-.895-14.38-1.364-4.468-.47-8.699-.63-9.401-.356-2.893 1.128-17.262-1.956-23.364-5.015-10.009-5.017-9.931-4.7-9.813-40.09.054-16.196.373-42.211.709-57.812.335-15.6.68-37.537.768-48.747.157-20.328.164-20.387 2.5-22.31 2.044-1.683 3.148-1.834 8.66-1.19 3.474.405 9.78.656 14.013.557 4.234-.1 14.625-.155 23.092-.125 26.659.098 110.45-.175 114.975-.374l4.33-.19-.098 24.941c-.054 13.718-.074 28.243-.045 32.277.401 56.096-.288 92.112-1.864 97.436-4.256 14.378-12.18 17.9-43.695 19.423-11.97.579-27.618 3.156-31.29 5.153-1.058.576-2.745 1.969-3.747 3.095-2.283 2.564-3.792 2.483-9.236-.495zm7.815-6.995c.67-1.773.754-6.359.244-13.449-.425-5.917-.637-11.42-.47-12.226.745-3.601 1.57-26.62 1.226-34.234-.277-6.159.644-33.741 1.32-39.482.711-6.053-1.09-8.445-6.364-8.445-2.003 0-3.886.4-4.183.89-.48.789-.904 20.3-1.878 86.508-.272 18.47-.19 19.51 1.672 21.273 3.014 2.855 7.194 2.44 8.433-.835zm-15.16-5.869c.323-2.555.185-7.475-.307-10.933-.492-3.457-.636-6.713-.319-7.234.317-.52.748-16.617.958-35.77.21-19.154.618-37.352.907-40.44.508-5.43.438-5.647-2.126-6.638-1.655-.64-2.99-.679-3.555-.104-.506.514-1.047 12.937-1.227 28.156-.177 14.98-.596 37.687-.93 50.458-.335 12.772-.332 24.106.005 25.186.423 1.353 1.455 1.965 3.312 1.965 2.494 0 2.741-.35 3.283-4.646zm28.643 1.492c.65-1.234 1.148-16.632 1.381-42.67.2-22.405.58-44.802.842-49.77.443-8.376.334-9.11-1.502-10.108-2.377-1.294-6.193-.493-6.927 1.453-.291.771-.633 23.853-.758 51.293-.175 37.99.05 50.233.94 51.323 1.48 1.815 4.695 1.003 6.024-1.52zm-41.607.854c.74-.907 1.243-14.186 1.601-42.303.287-22.539.612-45.602.722-51.25l.201-10.27-3.249-.316c-1.787-.174-3.691.133-4.23.682-.591.6-1.096 9.689-1.267 22.812-.157 11.998-.545 34.522-.863 50.055-.525 25.703-.43 28.406 1.057 30.076 1.92 2.156 4.508 2.377 6.028.514zm-12.245-1.255c.344-.193.664-18.729.712-41.19.048-22.461.335-44.817.637-49.68.496-7.974.364-9.012-1.354-10.593-1.047-.963-2.914-1.606-4.149-1.429l-2.244.323-.726 49.884c-.473 32.525-.393 50.656.23 52.105.78 1.815 1.441 2.104 3.612 1.576 1.461-.355 2.938-.803 3.282-.996zm-14.472-.413c1.82-.99 1.878-1.818 1.368-19.318-.293-10.056-.462-18.943-.376-19.75.086-.807.32-7.19.521-14.183.2-6.993.61-19.097.909-26.897.76-19.816.773-19.346-.58-21.003-1.481-1.814-4.232-1.94-5.607-.256-1.459 1.787-2.426 99.41-1.003 101.153 1.272 1.558 2.272 1.612 4.768.254zm80.199-.286c1.478-1.099 1.717-2.367 1.428-7.58-.19-3.443-.318-8.901-.282-12.13.035-3.227.156-15.991.269-28.364.112-12.373.6-29.06 1.085-37.082.63-10.454.577-14.956-.189-15.894-1.53-1.875-5.414-1.614-6.494.436-.505.96-.998 12.073-1.097 24.697a21143.63 21143.63 0 0 1-.454 48.872c-.175 16.483.08 26.365.7 27.142 1.26 1.579 2.82 1.549 5.034-.097zm12.994-.597c1.469-.944 1.441-.083 2.38-74.008.151-11.903.57-22.127.931-22.72.362-.595.189-1.97-.384-3.057-1.183-2.247-5.908-2.723-7.495-.754-1.133 1.406-2.752 96.01-1.7 99.377.694 2.225 3.737 2.79 6.268 1.162zm16.407-1.531c1.193-1.462 1.152-.777 1.016-17.092-.108-12.899-.052-27.242.15-38.635.068-3.766.153-15.21.19-25.43l.067-18.585-3.849-.255c-7.174-.475-6.704-3.874-7.006 50.698-.174 31.415.071 49.467.683 50.216 1.196 1.465 7.329.822 8.75-.917zm-121.544.72c.836-.54 1.172-7.392 1.236-25.172.148-41.197.632-65.343 1.385-69.026.547-2.68.34-3.902-.873-5.135-1.676-1.704-3.918-2.124-4.677-.876-.248.408-.756 17.904-1.128 38.88-.372 20.975-.997 42.539-1.388 47.918-.874 12.01.89 16.354 5.445 13.41zm133.249-2.896c1.23-1.464 1.412-7.145 1.252-39.22-.103-20.63.192-41.7.655-46.823.915-10.12.36-12.012-3.53-12.012-1.193 0-2.585.55-3.094 1.223-1.006 1.33-1.72 95.978-.736 97.596.92 1.513 3.887 1.098 5.453-.764zm-142.738-20.635c-.056-8.42-.104-17.4-.107-19.956-.001-2.556-.022-7.177-.046-10.27-.023-3.094.268-13.107.647-22.252l.825-19.89c.169-4.08-2.058-5.99-4.871-4.179-1.486.957-1.857 9.822-2.399 57.31-.251 22.058-.033 30.06.88 32.278 1.62 3.932 2.408 4.603 3.912 3.334.95-.802 1.236-4.837 1.159-16.375zm152.82-26.558c1.043-53.457 1.132-49.394-1.082-49.394-1.38 0-2.071.917-2.582 3.423-.878 4.313-1.095 81.284-.235 83.562.528 1.4.85 1.465 1.909.386.984-1.004 1.436-9.629 1.99-37.977zm-94.151-54.687c16.963-.1 19.242-1.73 2.837-2.03-13.66-.25-29.202-.336-32.96-.182-1.588.065-6.784.013-11.547-.116-9.15-.247-11.064-.018-11.064 1.32 0 1.04 8.317 1.455 25.015 1.252 7.144-.087 19.618-.197 27.719-.244zm34.239-1.23c-.316-.52-1.185-.709-1.93-.418-.744.29-2.324.156-3.51-.298-1.262-.483-3.155-.417-4.562.16l-2.405.985 2.229.604c3.219.87 10.864.095 10.178-1.033zm15.495.165c.369-.607-1.434-.978-4.754-.978-2.942 0-5.349.44-5.349.978s2.14.978 4.754.978c2.615 0 5.021-.44 5.349-.978zm4.51.31c-.695-.283-1.525-.248-1.845.077-.32.325.249.556 1.263.514 1.121-.047 1.35-.279.582-.591zm10.083.017c-1.03-1.046-5.453-1.258-5.453-.26 0 .5 1.37.911 3.047.911 1.675 0 2.758-.293 2.406-.65zm16.676-.327c0-.538-1.324-.978-2.943-.978-1.717 0-2.696.407-2.349.978.327.538 1.652.978 2.943.978 1.292 0 2.349-.44 2.349-.978zm-60.543-7.862c2.113-1.096 4.338-1.682 4.944-1.301.605.38 12.369.778 26.14.883 19.035.147 25.744-.119 27.972-1.105 1.612-.714 2.28-1.365 1.487-1.448-4.283-.444-133.762-.632-136.455-.197-2.137.344-2.879.841-2.235 1.496.85.864 22.107 1.12 59.651.72 6.569-.07 9.555.3 11.065 1.373 2.709 1.926 2.93 1.913 7.43-.42zm72.073-7.778c.673-.423.974-1.18.669-1.682-.74-1.217-152.463-1.417-153.201-.203-.3.493-.288 1.321.027 1.84.697 1.145 150.683 1.19 152.505.045zm-.71-7.684c1.025-1.042-7.106-2.742-8.605-1.8-.859.54-16.622.875-34.928.744-6.085-.044-20.59-.068-32.231-.055-11.642.014-21.817-.013-22.61-.058-8.265-.475-53.88.388-53.88 1.019 0 .459.726.977 1.613 1.15 4.335.85 149.772-.116 150.642-1zm-108.958-4.897c27.378.145 32.973-.05 34.108-1.186.567-.567-13.575-.914-37.283-.914-21.008 0-38.486-.11-38.838-.245-.353-.134-.812.276-1.02.912-.467 1.421 3.378 1.856 13.688 1.549 4.233-.127 17.438-.178 29.345-.116zm66.47-.182c1.807-.067 8.047-.09 13.868-.05 5.821.038 12.1-.321 13.951-.799l3.368-.869-3.849-.242c-2.116-.132-5.797-.205-8.178-.161-2.381.043-14.684.107-27.34.141-12.657.034-22.688.392-22.293.795.632.645 25.165 2.035 26.625 1.509.31-.112 2.041-.258 3.848-.324zm41.29-1.185c0-.403-2.274-.702-5.052-.664-2.821.038-4.324.362-3.403.733 2.224.898 8.454.847 8.454-.069zm-129.408-5.624c.353-.58-.698-.95-2.59-.91-2.652.058-2.862.21-1.259.91 2.61 1.14 3.156 1.14 3.849 0zm27.42-.546c0-.238-.674-.432-1.5-.432-.824 0-1.227.448-.895.994.55.904 2.396.47 2.396-.562zm17.8.442c1.827-.712 1.815-.757-.24-.9-7.738-.54-15.635-.013-15.635 1.044 0 1.163 12.82 1.048 15.875-.144zm31.728.142c.348-.573-2.255-.907-6.66-.855-3.978.047-6.998.47-6.712.94.708 1.166 12.658 1.09 13.372-.085zm9.163-.038c0-.538-1.299-.978-2.886-.978-1.588 0-2.887.44-2.887.978s1.3.978 2.887.978 2.886-.44 2.886-.978zm40.25-4.773c.705-.064 1.112-.636.905-1.27-.285-.868-17.878-1.186-71.52-1.289-39.127-.075-72.331.058-73.786.297-8.233 1.348 1.314 1.912 34.064 2.01 20.19.062 36.842.246 37.004.41.265.27 70.31.12 73.333-.158zm-5.844-11.1c2.751-.553 4.779-1.374 4.505-1.824-.755-1.241-143.063-1.455-145.031-.218-.424.266-.353.995.157 1.62 1.234 1.51 132.978 1.907 140.37.422zm48.976 124.954c1.116-.794 2.305-2.565 2.643-3.934.541-2.192-.657-3.768-9.99-13.137-5.834-5.855-10.882-10.192-11.22-9.637-.337.555-.81 5.06-1.05 10.01-.381 7.828-.182 9.43 1.53 12.291 1.083 1.81 2.962 3.851 4.176 4.536 3.045 1.718 11.426 1.64 13.911-.129zm-218.493-4.07c7.142-2.414 7.742-3.253 7.884-11.02.096-5.27-.204-6.898-1.356-7.347-1.72-.671-1.34-.869-11.735 6.091-4.413 2.955-8.27 6.026-8.571 6.824-.717 1.899.817 4.31 3.7 5.817 3.048 1.593 4.431 1.543 10.078-.365zm239.84-5.34c2.978-1.055 5.056-4.25 6.257-9.613.669-2.99-1.54-6.865-5.483-9.617-3.807-2.657-12.176-11.004-12.176-12.143 0-1.365-7.824-9.612-9.119-9.612-.648 0-3.264 1.128-5.813 2.506-2.55 1.378-5.97 2.434-7.6 2.346-6.013-.324-6.275.106-4.355 7.137 1.517 5.553 13.747 20.032 21.683 25.668 2.659 1.889 8.861 4.108 12.036 4.306.848.052 2.904-.388 4.57-.978zm-262.931-2.482c2.608-.88 5.607-2.345 6.666-3.256 2.485-2.14 14.525-10.047 18.35-12.05 5.19-2.72 5.69-4.027 5.846-15.278.08-5.7-.26-11.134-.755-12.076-.662-1.26-2.094-1.71-5.435-1.704-4.436.007-4.738.211-13.677 9.223-8.613 8.684-18.458 17.178-19.909 17.178-.359 0-1.547.839-2.64 1.863-1.092 1.025-3.5 2.71-5.353 3.747-5.8 3.243-4.88 8.348 2.138 11.88 4.946 2.488 8.46 2.601 14.769.473zm295.298-12.084c.963-1.081 1.932-4.054 2.18-6.69l.45-4.743-4.678-2.756c-2.573-1.515-6.627-4.367-9.008-6.336-2.381-1.97-5.845-4.516-7.697-5.66-1.852-1.142-5.734-4.524-8.626-7.513-5.841-6.038-8.185-6.663-11.506-3.07-1.203 1.302-3.412 2.883-4.91 3.513-3.698 1.558-4.232 3.593-1.613 6.158 1.204 1.18 3.54 3.906 5.192 6.058 7.807 10.173 17.928 18.824 25.21 21.55 5.514 2.063 12.94 1.81 15.006-.511zm-323.469-.983c6.453-1.653 8.665-2.842 15.875-8.531 4.608-3.637 12.6-10.755 17.759-15.818 8.715-8.553 9.38-9.478 9.38-13.022 0-3.428-.337-3.958-3.336-5.231-6.403-2.72-10.607-1.924-17.057 3.228-3.2 2.556-7.592 5.652-9.762 6.88-2.17 1.23-4.921 3.166-6.112 4.303-2.301 2.198-6.844 4.774-21.276 12.063-4.926 2.488-9.179 5.113-9.45 5.834-.677 1.79 2.256 7.32 4.265 8.043.898.323 2.282 1.14 3.076 1.816 1.33 1.134 4.121 1.945 7.697 2.238.794.065 4.817-.746 8.941-1.803zm346.184-13.71c3.745-1.057 6.049-3.179 7.036-6.48.742-2.48-2.609-6.998-6.798-9.164-4.338-2.244-12.765-9.03-19.782-15.93-4.372-4.3-7.924-6.86-10.995-7.923-5.817-2.015-5.314-2.098-9.69 1.607-2.065 1.748-5.461 4.06-7.548 5.135-6.502 3.353-6.424 3.958 1.348 10.406 11.945 9.91 24.204 18.718 29.977 21.536 3.845 1.878 11.367 2.25 16.452.814zm-368.162-3.932c2.62-1.204 7.96-4.11 11.866-6.459 3.907-2.348 7.351-4.269 7.654-4.269.304 0 2.03-1.147 3.839-2.549 1.808-1.402 6.828-4.96 11.155-7.908 4.328-2.948 9.021-6.468 10.43-7.822 2.303-2.214 2.456-2.773 1.515-5.54-1.416-4.165-3.358-5.479-7.925-5.36-2.117.055-5.625-.45-7.796-1.122-4.61-1.426-5.502-1.081-14.333 5.54-12.701 9.523-32.178 20.76-41.086 23.705-1.959.647-3.807 1.963-4.107 2.924-.69 2.212 1.535 6.64 4.342 8.638 4.944 3.52 17.034 3.63 24.446.222zm283.451-9.597c2.009-1.653 2.071-1.977.752-3.892-1.5-2.178-7.987-7.02-9.404-7.02-1.132 0-1.985 2.555-1.985 5.949 0 5.785 6.152 8.655 10.637 4.963zm115.641-1.144c5.258-.944 6.95-1.718 8.9-4.074 2.634-3.182 3.075-5.894 1.205-7.402-.661-.534-4.45-1.928-8.418-3.098-7.304-2.153-9.143-2.874-17.8-6.977-5.077-2.406-12.264-7.27-17.677-11.964-6.514-5.647-7.38-5.636-12.703.158-2.606 2.837-4.738 5.93-4.738 6.872 0 2.072 11.846 13.432 19.216 18.426 2.925 1.983 6.297 4.47 7.492 5.528 2.329 2.06 11.67 4.437 15.626 3.976 1.323-.154 5.327-.804 8.897-1.445zm-424.27-5.945c3.291-1.124 6.417-2.4 6.946-2.833 1.303-1.067 17.967-10.771 18.497-10.771.232 0 2.226-1.465 4.432-3.256 2.206-1.79 5.993-4.406 8.417-5.812 6.06-3.516 6.901-4.76 6.112-9.037-.987-5.348-3.886-7.87-11.184-9.731-6.09-1.553-6.555-1.546-9.443.141-1.67.977-4.192 2.438-5.604 3.248-1.413.81-4.95 2.995-7.86 4.858-8.468 5.418-9.064 5.784-10.583 6.489-8.163 3.788-11.817 5.275-12.96 5.275-.748 0-1.607.408-1.91.907-.303.499-2.169 1.411-4.146 2.028-8.011 2.5-8.82 3.046-9.436 6.383-.997 5.403 1.23 9.875 5.77 11.591 7.875 2.976 15.277 3.144 22.953.52zm325.892-3.448c2.118-1.945 3.85-4.072 3.85-4.727 0-.654-1.734-2.606-3.854-4.339-2.12-1.732-8.495-7.967-14.167-13.857-5.672-5.889-10.865-10.707-11.54-10.707-.807 0-1.263 1.588-1.332 4.646-.058 2.555-.268 6.186-.467 8.069-.764 7.25.52 11.723 4.688 16.32 4.986 5.499 9.65 8.034 14.884 8.09 3.375.035 4.756-.573 7.938-3.495zm-219.374.125c1.488-1.823.446-8.325-1.334-8.325-5.47 0-9.982 4.479-8.13 8.07 1.119 2.171 7.753 2.35 9.464.255zm346.779-9.795c3.6-1.79 5.98-3.734 6.98-5.7 1.44-2.83 1.411-3.07-.541-4.678-1.133-.932-5.624-2.892-9.982-4.355-11.824-3.97-24.605-10.483-30.271-15.426-5.948-5.188-7.265-5.1-12.127.813-2.12 2.578-4.912 4.713-7.117 5.442-1.995.66-4.425 1.757-5.4 2.438-1.72 1.203-1.72 1.291.012 3.04 8.77 8.858 21.646 15.584 38.322 20.018 8.424 2.24 13.175 1.864 20.124-1.592zm-352.767-2.912c2.72-1.334 5.343-3.205 5.826-4.157.484-.952.784-5.692.666-10.534-.26-10.66-1.116-11.233-8.48-5.683-5.252 3.957-13.883 8.512-18.233 9.622-4.102 1.046-4.884 2.696-3.211 6.767 2.741 6.67 14.04 8.591 23.432 3.985zm244.603-1.484c4.765-3.449 3.821-5.697-5.748-13.696-6.96-5.817-17.447-16.914-19.16-20.273-.61-1.199-2.458-2.534-4.105-2.968-3.955-1.042-15.602 1.85-16.02 3.978-.55 2.798 4.61 9.46 17.131 22.12 9.687 9.793 13.253 12.784 16.087 13.492 4.247 1.061 7.78.268 11.815-2.653zM245.95 215.53c12.8-5.516 17.569-8.104 26.94-14.62l8.178-5.687V183.53l-5.292-.601c-2.91-.331-7.89-.932-11.065-1.336-4.873-.619-6.297-.428-9.14 1.228-1.852 1.08-5.095 2.52-7.206 3.2-2.11.682-5.839 2.49-8.284 4.02-2.446 1.53-5.161 2.781-6.034 2.781-.874 0-3.424.846-5.667 1.879s-6.613 2.599-9.71 3.48c-9.094 2.586-12.668 7.774-9.935 14.423 2.366 5.758 6.95 7.54 18.453 7.17 8.726-.28 10.472-.675 18.762-4.246zm388.457-4.004c1.765-2.357 3.062-4.778 2.882-5.38-.18-.602-2.903-2.511-6.051-4.241-3.149-1.73-7.083-3.931-8.743-4.89-5.22-3.02-15.054-10.23-20.63-15.126-2.95-2.593-6.035-4.714-6.853-4.714-2.285 0-10.133 4.754-10.81 6.549-.368.973.296 2.58 1.703 4.125 1.268 1.391 3.338 3.799 4.6 5.35 6.51 7.996 15.68 16.498 21.158 19.618 5.63 3.205 6.721 3.48 12.843 3.248 6.67-.254 6.7-.268 9.9-4.54zm115.582 2.403c.479-.3 3.624-.812 6.99-1.136 9.036-.87 10.869-2.01 11.224-6.979.542-7.577-2.262-9.924-14.245-11.923-9.97-1.663-17.653-3.767-27.42-7.51-3.176-1.217-7.072-2.53-8.66-2.919-1.587-.388-5.673-2.033-9.08-3.654-6.036-2.873-6.266-2.906-9.05-1.28-3.764 2.195-5.343.811-3.803-3.334 1.558-4.198-.113-5.414-8.536-6.209-7.234-.683-15.565-2.581-16.79-3.826-.378-.385-1.611-.7-2.74-.7-1.129 0-2.464-.363-2.967-.808-.502-.444-2.862-1.406-5.243-2.138-2.381-.732-5.412-2.019-6.735-2.86-1.323-.841-5.003-2.85-8.178-4.464-3.175-1.613-5.997-3.233-6.27-3.6-.847-1.135-11.652-6.67-13.022-6.67-1.962 0-6.675 5.572-8.099 9.576l-1.263 3.549 4.918 4.597c7.748 7.242 19.334 13.715 35.162 19.645 9.194 3.445 11.237 3.872 16.837 3.525 3.506-.217 7.889-1.103 9.741-1.968 4.275-1.996 8.483-2.96 9.668-2.215 1.303.818-.728 4.372-2.499 4.372-.782 0-2.174.388-3.093.864-.919.475-2.861 1.43-4.316 2.121-1.456.692-2.646 1.957-2.646 2.812 0 1.782 9.316 8.435 17.8 12.71 8.65 4.36 25.96 9.964 33.12 10.722 6.934.735 17.82.565 19.195-.3zM334.62 211.96c5.804-1.79 13.75-5.792 18.608-9.371 2.117-1.56 5.797-4.048 8.178-5.53 5.302-3.3 6.665-4.967 6.705-8.205.048-3.981-1.94-5.651-8.581-7.208-5.747-1.347-6.495-1.324-10.103.318-2.143.976-4.72 2.718-5.729 3.872-1.008 1.154-2.163 2.098-2.566 2.098-.404 0-4.03 1.98-8.057 4.401-4.028 2.421-8.069 4.413-8.98 4.427-3.662.056-15.134 4.727-15.445 6.29-.416 2.082 2.134 6.005 4.89 7.525 5.08 2.8 14.485 3.418 21.08 1.383zm323.4-10.797c3.806-1.617 7.422-5.726 7.422-8.436 0-2.118-1.447-2.988-9.69-5.827-13.663-4.705-31.493-14.713-39.263-22.038-1.376-1.297-3.22-2.359-4.098-2.359-2.303 0-11.487 9.424-10.844 11.127.683 1.81 8.061 8.06 14.977 12.687 2.993 2.004 5.969 4.287 6.612 5.075.643.788 1.528 1.432 1.965 1.432.438 0 2.69 1.3 5.005 2.888 8.83 6.059 20.923 8.42 27.913 5.45zm-444.783-6.754c2.91-1.4 6.158-2.562 7.216-2.584 1.058-.023 2.765-.687 3.792-1.477 1.027-.79 2.48-1.436 3.23-1.436s4.022-1.257 7.273-2.793c3.25-1.536 8.414-3.794 11.475-5.017 7.547-3.018 8.096-4.385 4.528-11.28-1.582-3.059-2.877-6.13-2.877-6.824 0-3.036-10.754-3.424-16.166-.584-3.785 1.987-5.07 2.54-14.141 6.089-3.175 1.242-6.64 2.796-7.697 3.454-1.059.658-3.657 1.64-5.773 2.183-8.891 2.282-12.617 3.34-14.432 4.102-1.059.444-3.873 1.309-6.254 1.922-5.975 1.538-6.735 2.425-6.735 7.865 0 4.346.263 4.891 3.127 6.479 5.3 2.938 6.643 3.152 17.559 2.792 8.959-.295 11.396-.739 15.875-2.891zm101.525-.548c3.693-1.043 8.88-3.086 11.526-4.54a1188.02 1188.02 0 0 1 9.304-5.047c5.213-2.79 8.97-6.505 8.073-7.981-.343-.565-2.878-2.549-5.633-4.408-2.755-1.86-6.28-4.731-7.835-6.381-3.47-3.684-4.565-3.698-10.644-.136-7.413 4.343-23.953 12.785-25.05 12.785-.539 0-2.375 1.296-4.08 2.879-3.573 3.318-4.1 7.388-1.395 10.784 3.297 4.139 15.025 5.07 25.734 2.045zm487.784-3.38c20.547-1.812 31.376-4.662 36.802-9.687 2.254-2.087 2.895-5.98 1.164-7.067-.551-.346-.76-1.4-.466-2.344.324-1.04-.398-2.738-1.84-4.319-2.315-2.54-2.682-2.609-14.687-2.768-6.773-.09-14.617-.257-17.433-.372-6.523-.264-29.277-3.263-34.328-4.523-2.117-.528-7.529-1.574-12.027-2.325-8.656-1.443-26.568-5.374-33.462-7.343-3.614-1.032-4.348-.962-6.013.57-1.043.96-1.897 2.727-1.897 3.927 0 3.185-5.863 11.64-8.318 11.996-3.109.45-5.782 3.845-4.569 5.8 2.664 4.294 42.527 16.953 53.297 16.926 2.381-.006 5.867.533 7.747 1.197 3.563 1.26 23.438 1.443 36.03.332zm-230.913-8.69c5.473-1.295 11.86-4.28 18.28-8.54 1.588-1.054 3.753-2.319 4.812-2.812 3.135-1.46 18.617-18.123 20.188-21.728.796-1.828 2.958-5.745 4.804-8.704 4.474-7.17 5.375-9.379 6.19-15.16.38-2.69 1.154-5.771 1.722-6.847 1.51-2.863 2.651-17.024 2.35-29.184-.18-7.3.26-13.053 1.413-18.481l1.675-7.88-4.032-3.527c-5.237-4.58-5.171-5.972.281-5.972 5.486 0 8.269-1.256 15.736-7.105 6.522-5.109 8.916-5.53 9.8-1.725.635 2.733 1.797 3.105 16.844 5.382 12.794 1.936 41.636 1.983 47.814.077 6.379-1.968 8.395-3.16 13.04-7.706 8.355-8.176 7.5-8.505-31.028-11.926-11.236-.997-15.174-1.498-16.036-2.04-.48-.3-7.365-1.082-15.301-1.736-11.237-.926-16.498-.93-23.778-.02-9.453 1.182-10.88 1.523-16.083 3.843-1.588.708-4.05 1.582-5.47 1.942-3.185.806-12.35 10.412-15.028 15.749-1.088 2.166-2.894 7.795-4.015 12.509-2.012 8.46-2.017 8.77-.43 24.381 1.738 17.09 1.396 31.765-.865 37.135-.724 1.722-1.862 4.891-2.528 7.043-.665 2.152-2.286 5.534-3.602 7.516-1.316 1.982-3.11 4.963-3.99 6.624-2.338 4.426-14.418 16.415-17.271 17.143-1.35.345-3.458 1.43-4.686 2.411-1.228.982-3.86 2.095-5.849 2.473-5.546 1.053-6.021 1.862-6.021 10.25 0 8.187.418 9.244 3.355 8.482 1.065-.276 4.534-1.116 7.71-1.867zm-410.351-3.723c11.196-.819 14.913-1.565 26.94-5.407 22.557-7.206 35.864-11.872 38.244-13.409 1.403-.906 1.657-13.09.318-15.24-.47-.755-3.295-1.71-6.276-2.12-2.98-.412-7.767-1.499-10.637-2.416-6.097-1.95-5.902-1.985-22.13 3.96-6.88 2.519-14.457 4.942-16.838 5.384-2.381.442-6.927 1.474-10.102 2.295-13.983 3.613-23.387 5.522-27.195 5.521-3.29-.001-4.777.628-7.506 3.178-2.899 2.708-3.484 3.99-3.955 8.664l-.552 5.486 3.247 1.2c3.66 1.354 16.182 3.651 20.566 3.774 1.588.044 8.732-.347 15.876-.87zM288 174.877c1.661-.873 4.944-2.251 7.296-3.063 2.35-.811 8.77-4.063 14.266-7.226 12.361-7.115 12.656-7.968 6.154-17.82-4.991-7.563-6.858-8.273-13.014-4.954-3.047 1.643-17.958 8.32-28.85 12.92-2.382 1.006-7.419 2.728-11.194 3.828-7.465 2.174-9.497 3.777-8.568 6.753.979 3.136 7.89 9.748 11.306 10.817 4.63 1.45 18.976.653 22.604-1.254zm79.6.535c.302-.969.353-3.887.114-6.485-.488-5.293-2.343-7.83-7.915-10.826-2.001-1.076-4.33-2.617-5.175-3.424-.846-.806-3.238-3.067-5.315-5.024-8.964-8.44-12.775-13.34-15.742-20.236-5.792-13.461-6.79-24.735-3.914-44.185 1.364-9.225 2.209-38.077 1.154-39.443-.487-.631-1.16-2.316-1.495-3.743-.335-1.428-2.345-4.83-4.467-7.559-7.676-9.872-22.922-13.448-43.798-10.274-10.248 1.558-43.01 4.294-57.098 4.768-5.485.184-10.445.815-11.021 1.401-.757.769-.34 2.534 1.495 6.338 2.166 4.49 3.303 5.64 7.654 7.743 8.156 3.94 14.878 5.375 23.559 5.028 4.325-.174 9.52-.783 11.546-1.354 2.024-.572 5.846-1.058 8.492-1.08 9.06-.076 20.17-3.628 21.149-6.761.76-2.433 5.41-2.78 7.238-.54.661.81 4.172 2.901 7.8 4.646 3.63 1.746 6.79 3.677 7.025 4.291.234.615-.517 3.036-1.67 5.38-1.922 3.91-2.11 5.888-2.271 23.95-.158 17.633.062 20.746 2.113 29.831 4.983 22.077 9.854 33.836 18.584 44.867 4.634 5.856 12.592 13.694 13.904 13.694.578 0 1.992.9 3.143 1.999 3.145 3.003 16.783 8.734 20.817 8.748 2.574.009 3.694-.47 4.093-1.75zm340.513-14.17c2.105-1.81 4.273-4.864 5.019-7.07 1.16-3.431 1.12-4.282-.338-7.3-2.06-4.262-3.975-5.212-16.564-8.22-5.556-1.327-13.783-3.748-18.28-5.379l-8.179-2.966-3.49 3.785c-5.656 6.132-8.172 7.003-20.136 6.97-11.28-.031-12.94.822-7.878 4.051a241.99 241.99 0 0 1 4.083 2.658c4.017 2.713 27.488 12.775 29.799 12.775.897 0 1.953.33 2.347.734 1.578 1.618 10.247 2.952 19.81 3.048 10.064.101 10.116.09 13.807-3.086zm135.805-2.706a507.313 507.313 0 0 1 10.206-1.804c5.025-.827 14.213-3.287 18.658-4.994 8.174-3.139 11.993-5.062 21.416-10.785 6.104-3.708 4.924-7.756-5.12-17.56-6.841-6.679-9.04-7.175-19.376-4.369-18.853 5.12-73.866 4.761-94.688-.616-5.439-1.404-12.748-1.059-16.338.772-1.8.919-4.997 1.91-7.101 2.2-3.688.512-3.867.708-4.94 5.422-.612 2.69-1.409 5.615-1.77 6.5-.804 1.969-11.102 7.682-13.847 7.682-2.27 0-6.886 1.952-6.886 2.913 0 .695 11.948 3.782 19.724 5.095 8.745 1.478 9.583 1.645 13.466 2.696 11.31 3.06 30.814 5.666 48.592 6.493 6.085.283 11.714.66 12.508.838 3.187.712 20.987.375 25.496-.483zm-588.347-3.818c1.852-.49 5.896-1.532 8.986-2.314 3.09-.783 6.1-1.912 6.687-2.509.587-.597 2.039-1.086 3.224-1.086 1.186 0 2.39-.383 2.674-.851.285-.468 3.233-1.858 6.551-3.088 5.499-2.038 10.364-5.234 10.364-6.807 0-.59-8.986-4.904-10.214-4.904-.315 0-1.895-1.13-3.51-2.512-2.164-1.851-3.594-2.357-5.431-1.921-3.595.852-12.598 4.338-15.946 6.173-1.579.866-4.61 1.9-6.735 2.3-10.643 2-16.39 3.77-17.574 5.417-3.552 4.937-1.962 11.07 3.16 12.187 4.379.954 14.011.908 17.764-.085zm266.272.119c2.781-.142 3.127-.477 3.127-3.028 0-3.564-2.778-4.737-6.053-2.555-3.25 2.164-7.823.965-11.521-3.021-3.377-3.64-4.695-4.012-6.48-1.826-1.41 1.727-6.932 1.933-9.925.37-1.156-.604-3.266-2.201-4.69-3.55-3.18-3.014-4.777-2.49-7.94 2.603-3.312 5.333-5.367 6.323-10.12 4.875-2.965-.903-4.549-2.306-7.22-6.395-1.993-3.052-4.12-5.225-5.095-5.207-.969.018-3.62 2.9-6.298 6.846-3.75 5.527-5.105 6.816-7.164 6.816-2.707 0-9.86-4.475-9.86-6.169 0-1.284-2.907-4.59-4.036-4.59-.468 0-2.458 1.703-4.42 3.785-1.964 2.082-5.46 4.758-7.769 5.945l-4.198 2.16-2.59-2.522c-3.147-3.065-3.68-3.097-6.51-.395-2.296 2.192-2.963 5.287-1.264 5.862.939.317 113.794.314 120.026-.004zm-388.985-3.232c4.211-.544 8.404-1.396 9.318-1.893.913-.496 3.025-.903 4.693-.903 2.835 0 14.129-2.748 20.666-5.028 1.588-.554 5.918-1.808 9.622-2.789 3.704-.98 7.817-2.232 9.14-2.783 1.323-.551 3.541-1.247 4.93-1.546 3.662-.79 7.1-3.87 6.12-5.483-.44-.726-.834-2.86-.874-4.742-.07-3.285-.286-3.488-5.365-5.028-6.642-2.015-9.052-3.295-14.267-7.582l-4.165-3.422-8.651 1.7c-4.758.934-10.028 1.87-11.71 2.08-1.683.21-7.606 1.09-13.163 1.958-15.057 2.35-48.143 1.969-61.239-.705-9.017-1.841-9.99-1.876-12.699-.452-3.68 1.935-7.646 7.142-8.414 11.05-.494 2.508-.009 3.635 3.042 7.067 5.397 6.073 18.034 14.097 25.43 16.148 1.324.367 3.921 1.125 5.774 1.684 8.284 2.503 25.48 2.778 41.812.669zm287.873-11.333c5.115-5.664 5.324-8.133.893-10.558-2.919-1.598-3.517-1.64-5.389-.376-2.18 1.471-4.758 7.59-4.783 11.353-.014 1.983 2.134 4.105 4.227 4.176.481.016 2.755-2.052 5.052-4.595zm24.777 1.615c2.982-3.603 3.19-7.56.574-10.941-1.055-1.363-2.462-4.13-3.127-6.15-.666-2.02-2.001-4.155-2.968-4.746-1.468-.897-2.22-.517-4.57 2.313-2.307 2.778-2.808 4.272-2.789 8.314.02 4.065.61 5.74 3.377 9.574 3.94 5.459 6.04 5.82 9.503 1.636zm72.835.847c1.567-2.976 1.196-15.35-.59-19.697-1.853-4.508-4.466-4.676-8.273-.533-4.013 4.368-4.148 12.718-.302 18.725 2.83 4.418 7.25 5.144 9.165 1.505zm-43.41-2.875c3.728-5.232 3.643-7.168-.476-10.876-1.852-1.666-3.367-3.533-3.367-4.147 0-1.742-4.24-5.36-5.38-4.592-1.884 1.272-6.166 8.46-6.166 10.351 0 2.561 6.352 12.1 8.424 12.65 3.446.916 4.14.58 6.964-3.386zm23.305-.587c2.403-2.8 3.381-5.343 4.08-10.6.596-4.492.406-5.284-1.943-8.122-3.52-4.253-7.667-3.978-10.215.676-.971 1.776-2.65 4.192-3.73 5.37-2.592 2.83-1.79 5.991 2.72 10.72 3.804 3.99 6.792 4.632 9.088 1.956zm235.034-3.35c6.726-2 10.866-7.493 8.404-11.148-1.33-1.975-4.563-2.618-14.962-2.975-5.724-.196-12.867-.999-15.875-1.784-6.081-1.587-9.33-2.254-15.24-3.13-3.358-.499-4.527-.183-7.306 1.972-1.82 1.41-3.602 2.565-3.96 2.565-.357 0-2.422 1.138-4.589 2.529-2.683 1.721-3.626 2.847-2.957 3.527 2.01 2.044 16.42 6.147 36.28 10.331 4.157.876 14.014-.044 20.205-1.887zm-490.209-1.711c11.906-3.304 30.548-10.42 32.977-12.59.939-.837 1.581-1.908 1.427-2.378-.154-.47-3.219-1.898-6.81-3.174-3.591-1.276-8.058-3.504-9.926-4.953-2.865-2.221-4-2.535-7.253-2.006-2.12.345-5.44 1.442-7.376 2.438-1.936.996-5.035 2.14-6.887 2.544-1.852.403-4.222 1.337-5.266 2.076-1.043.738-3.032 1.342-4.42 1.342-1.386 0-5.078.894-8.204 1.988-3.125 1.093-7.631 2.049-10.012 2.124-6.356.2-7.697 1.172-7.697 5.583 0 4.51.723 5.196 8.178 7.75 8.639 2.959 18.792 2.717 31.27-.744zm413.061 1.76c2.625-1.374 6.431-4.853 6.431-5.878 0-1.722-4.384-4.759-6.87-4.759-1.461 0-5.168-.702-8.236-1.561-5.442-1.523-12.576-3.201-13.974-3.286-2.038-.125-5.134 11.18-3.705 13.531.395.65 1.98 1.564 3.522 2.033 4.125 1.254 20.393 1.197 22.832-.08zm-349.192-4.64c1.54-1.73 1.456-2.195-1.535-8.559l-3.162-6.73-4.811.117c-8.6.21-12.67 1.364-14.052 3.988-1.067 2.026-1.04 2.82.173 5.02 3.396 6.159 19.592 10.427 23.387 6.164zm149.013-3.796c.83-.941 3.098-6.45 5.04-12.24l3.531-10.529-1.816-3.161c-1-1.74-2.56-3.307-3.467-3.485-.907-.178-3.698 1.381-6.202 3.465-2.503 2.083-5.742 4.548-7.197 5.477-2.12 1.354-2.644 2.415-2.637 5.335.009 3.376 3.541 12.66 5.93 15.587 1.468 1.797 5.044 1.562 6.818-.449zm27.798-4.89c1.337-1.48 3.835-5.067 5.552-7.972 3.504-5.928 3.499-9.634-.02-14.18-2.69-3.477-5.396-3.257-7.406.601-2.637 5.064-6.934 8.802-9.394 8.174-1.245-.317-2.597.033-3.26.845-1.33 1.63.39 5.623 4.974 11.554 3.42 4.424 6.185 4.707 9.554.978zm-53.336-1.467c1.646-1.749 3.916-5.006 5.047-7.239 1.982-3.915 3.015-11.334 1.755-12.614-1.537-1.563-4.54 1.082-8.11 7.142-7.213 12.241-6.329 20.827 1.308 12.71zm247.442-1.058c5.534-2.921 8.79-7.5 8.275-11.635-.63-5.06-1.95-5.63-14.205-6.134-6.176-.254-14.46-1.14-18.407-1.969-3.947-.829-9.48-1.605-12.296-1.726-4.82-.206-5.134-.076-5.363 2.226-.134 1.345-.741 4.74-1.349 7.546-1.326 6.127-.423 7.752 4.816 8.662 1.931.335 5.893 1.257 8.803 2.049 17.538 4.768 22.256 4.924 29.726.981zm74.039-3.708c3.59-.724 6.247-2.049 8.791-4.385 4.393-4.034 5.199-6.546 2.991-9.318-1.538-1.932-2.49-2.068-13.528-1.93-15.888.196-30.899-2.14-47.108-7.335-7.079-2.268-9.298-1.847-12.061 2.285-2.475 3.703-3.168 7.514-1.552 8.53.489.307 1.173 1.877 1.521 3.489.777 3.593 2.81 4.766 10.439 6.022 3.252.535 8.078 1.392 10.724 1.904 6.415 1.243 24.897 2.53 30.308 2.11 2.38-.184 6.645-.801 9.475-1.372zm110.498-.438c3.601-.8 8.713-1.867 11.358-2.37 10.405-1.974 18.371-5.534 33.561-14.996 11.312-7.045 12.551-9.476 8.031-15.75-5.168-7.174-8.287-7.576-22.83-2.94-13.794 4.398-50.89 6.257-71.68 3.592a8217.083 8217.083 0 0 0-18.28-2.32 2953.226 2953.226 0 0 1-12.236-1.555c-3.525-.464-3.61-.395-5.877 4.764-2.037 4.633-6.755 9.636-9.089 9.636-.451 0-2.005 1.257-3.453 2.794-2.422 2.569-2.61 3.329-2.345 9.474l.288 6.68 7.144 1.221c6.882 1.176 22.293 2.945 32.303 3.708 10.613.809 46.67-.507 53.105-1.938zm-647.225-.42c3.313-1.076 6.717-1.957 7.564-1.957.846 0 3.713-.825 6.369-1.833 2.656-1.008 8.61-3.052 13.23-4.542 4.62-1.489 9.275-3.33 10.343-4.09 2.263-1.611 2.566-4.732.537-5.523-.772-.301-2.751-2.44-4.397-4.75-3.969-5.574-5.631-6.059-12.792-3.73-19.402 6.312-29.953 8.293-44.258 8.314-10.14.014-11.527.222-12.748 1.914-4.409 6.107 2.25 14.003 14.504 17.2 5.593 1.458 15.478 1 21.648-1.004zm295.564-.673c2.174-2.117 2.699-3.484 2.699-7.028 0-5.44-3.009-9.453-5.906-7.877-.985.536-1.791 1.61-1.791 2.388 0 .777-1.732 2.31-3.849 3.408-4.752 2.465-4.995 4.973-.86 8.9 3.717 3.53 6.242 3.585 9.707.21zm-378.789-3.086c2.646-.539 8.924-1.444 13.951-2.011 10.507-1.186 23.987-4.465 25.61-6.23.608-.663 1.387-2.825 1.73-4.805.677-3.905.843-3.666-6.173-8.893-2.881-2.147-5.102-4.917-6.64-8.283-1.272-2.782-3.004-5.203-3.85-5.38-.845-.179-3.918.076-6.828.564-2.91.49-15.25.945-27.421 1.014l-22.13.126-.303-2.174c-.303-2.165-.24-2.174 14.232-2.169 7.994.003 14.842-.178 15.217-.403.375-.225 4.578-.71 9.34-1.076 16.222-1.25 25.751-2.4 32.123-3.876 3.5-.81 10.476-1.973 15.503-2.583 5.027-.61 10.872-1.495 12.989-1.966 2.117-.471 7.312-1.3 11.546-1.844 9.907-1.27 20.686-4.6 20.686-6.39 0-.806-3.026-2.481-7.422-4.111-8.735-3.238-13.278-7.316-16.956-15.22-1.696-3.644-3.23-5.585-4.714-5.963-1.21-.309-11.192-.543-22.182-.52-21.057.043-71.972-1.117-72.914-1.661-.304-.176-7.881-.596-16.837-.934-8.957-.337-23.212-1.238-31.68-2-26.483-2.386-36.492-1.67-46.582 3.333-6.998 3.47-6.466 7 2.57 17.077 9.119 10.169 22.934 18.995 33.151 21.18 2.27.486 6.517 1.564 9.439 2.396 5.385 1.533 7.481 1.82 22.109 3.024 10.854.894 14.432 2.042 14.432 4.633 0 1.941-.342 1.998-8.312 1.375-10-.782-28.728-4.098-34.177-6.053-10.287-3.69-21.987.494-21.97 7.854.008 3.356 6.823 11.353 15.042 17.653 12.494 9.578 21.52 12.49 46.53 15.02 9.547.964 34.83.53 40.891-.704zm164.526-1.661c3.676-1.83 3.861-2.144 4.137-6.996.256-4.49.013-5.265-2.087-6.664-2.157-1.437-2.832-1.446-7.299-.097-2.707.817-9.344 1.751-14.75 2.076-14.078.846-14.157.872-14.157 4.796 0 2.78.576 3.66 3.608 5.508 5.232 3.189 8.345 3.798 18.04 3.531 6.276-.173 9.719-.766 12.508-2.154zM477.8 97.845c3.007-5.736 3.09-6.188 2.098-11.492a688.127 688.127 0 0 1-1.45-7.967c-.228-1.345-1.403-4.73-2.61-7.521-1.826-4.222-1.986-5.333-.95-6.602 2.073-2.539 4.568-1.825 5.778 1.652.608 1.748 1.74 6.843 2.517 11.322.776 4.48 2.294 9.902 3.372 12.051 2.394 4.77 10.21 12.572 12.596 12.572.999 0 2.832-1.758 4.304-4.129 2.28-3.672 2.557-5.055 2.5-12.499-.06-7.676-1.89-15.964-4.929-22.316-5.511-11.522-8.54-15.83-11.13-15.83-1.771 0-1.866 1.022-.399 4.296.885 1.974.795 2.731-.48 4.026-1.83 1.861-1.12 3.743 2.67 7.077 2.678 2.357 3.195 5.015 1.34 6.9-1.56 1.588-6.544-3.22-6.544-6.314 0-3.72-8.951-15.927-19.143-26.107-6.583-6.575-10.022-9.364-10.876-8.823-.688.435-3.975 1.08-7.304 1.432-3.33.353-6.336.929-6.682 1.28-.345.351.584 3.071 2.065 6.044 1.576 3.165 3.022 8.114 3.489 11.938.826 6.769.364 7.985-3.044 8.018-2.921.027-3.423 2.438-3.563 17.131-.078 8.07-.361 15.772-.63 17.117-.625 3.123 1.777 10.181 3.592 10.557 1.78.368 7.923-6.046 9.95-10.39a11.973 11.973 0 0 0 .999-6.948c-.384-2.44-.09-4.287.913-5.744 2.569-3.728 3.955-2.623 4.66 3.718.773 6.94 2.356 11.091 6.52 17.096 4.365 6.296 6.42 5.99 10.37-1.545zm205.648-1.378c3.526-2.51 7.97-10.08 7.97-13.577 0-6.034-1.94-6.774-20.022-7.641-8.832-.423-19.726-1.207-24.21-1.742-10.022-1.195-10.517-.824-11.185 8.38-.709 9.786.39 11.44 8.295 12.476 3.428.45 9.046 1.394 12.485 2.099 9.1 1.866 24.05 1.869 26.667.006zm87.787-4.852c8.441-5.213 11.061-10.671 6.535-13.613-2.162-1.405-26.416-6.138-38.245-7.463-3.44-.385-9.336-1.412-13.103-2.282-3.767-.87-9.828-1.657-13.47-1.75-5.716-.145-7.124.182-10.301 2.39-2.025 1.406-4.514 2.826-5.533 3.155-1.555.501-1.851 1.533-1.851 6.444 0 7.166 2.274 10.058 8.745 11.12 2.334.383 6.192 1.323 8.573 2.088 8.49 2.727 23.118 4.162 38.313 3.759l14.74-.391 5.597-3.457zm-483.81.365c3.496-1.022 7.414-1.857 8.707-1.857 3.732 0 4.416-1.41 3.45-7.113-1.624-9.584-1.864-10.012-5.56-9.924-1.833.044-7.88.884-13.436 1.867-5.557.983-13.567 1.839-17.8 1.901-4.233.063-8.207.44-8.83.837-.622.397-1.625 2.24-2.227 4.094-1.451 4.472.963 9.96 5.208 11.842 4.037 1.789 22.057.815 30.487-1.647zm-79.962-1.04c3.44-.578 8.635-1.694 11.546-2.48 2.91-.785 7.456-2.008 10.102-2.717 2.646-.709 6.11-1.739 7.697-2.289 1.588-.55 4.14-1.365 5.674-1.811 1.532-.447 3.264-1.598 3.848-2.558.896-1.474.3-2.467-3.818-6.358-2.684-2.536-5.656-5.822-6.605-7.301-2.106-3.284-5.4-3.47-13.05-.734-2.91 1.041-6.85 1.907-8.756 1.925-1.905.017-4.72.428-6.254.912-1.534.485-6.686 1.398-11.448 2.03-22.658 3.005-27.933 4.028-29.628 5.748-2.202 2.234-1.156 5.379 3.296 9.905 7.246 7.365 17.92 9 37.396 5.728zm656.659-11.611c14.136-1.086 34.576-4.76 40.516-7.283 1.923-.817 4.201-1.493 5.063-1.504.861-.01 3.514-1.327 5.895-2.927 2.382-1.6 5.196-3.462 6.254-4.139 10.683-6.825 19.72-14.637 19.723-17.048 0-2.265-5.89-7.073-11.312-9.229-8.99-3.576-16.616-3.612-55.555-.267-15.393 1.323-61.448 1.493-81.29.301-31.553-1.895-32.815-1.977-38.65-2.523l-5.446-.51-8.39 7.92c-8.906 8.41-13.932 11.306-21.353 12.307-5.483.74-8.916 2.299-8.916 4.05 0 2.572 4.354 4.13 12.989 4.65 4.763.286 11.17 1.196 14.238 2.02 3.069.826 7.399 1.507 9.622 1.513 2.223.007 6.423.693 9.334 1.525 2.91.832 7.673 1.875 10.583 2.317 2.91.442 8.756 1.499 12.99 2.348 4.232.849 11.593 2.041 16.355 2.65 4.763.608 9.742 1.284 11.065 1.501 1.323.217 9.713 1.04 18.644 1.83 8.932.79 16.428 1.627 16.658 1.86.23.235 2.015.257 3.966.05 1.95-.208 9.609-.843 17.017-1.412zm-581.131-9.752c2.646-.589 6.975-1.52 9.621-2.07 2.646-.55 5.407-1.59 6.136-2.311.76-.752 1.53-4.226 1.806-8.14.45-6.406.337-6.923-1.85-8.38-2.415-1.609-4.956-1.428-17.637 1.253-10.366 2.191-28.599 4.982-32.548 4.982-3.175 0-4.686.57-6.383 2.407-1.983 2.145-2.097 2.72-1.053 5.283 1.587 3.896 4.667 6.635 8.714 7.75 4.25 1.172 26.807.645 33.194-.774zm412.545-1.489c5.963-2.775 6.996-3.75 7.917-7.48 1.092-4.424-2.002-5.573-15.154-5.628-12.271-.052-27.347-1.486-32.1-3.054-6.053-1.996-15.238.73-18.26 5.419-1.676 2.6-1.152 9.694.806 10.924 1.711 1.075 16.485 1.995 34.517 2.148 16.253.138 17.184.04 22.274-2.329zM430.68 45.858c0-.675-1.617-2.546-3.593-4.157-1.976-1.61-6.497-5.726-10.045-9.146-5.238-5.047-6.766-7.233-8.122-11.614-2.312-7.472-4.962-8.592-16.527-6.986-7.837 1.089-8.61 1.409-11.992 4.97-5.686 5.987-8.158 13.797-5.166 16.321 1.383 1.167 4.452.509 4.452-.954 0-1.89 6.188-3.99 11.675-3.963 6.086.03 5.984-.024 16.423 8.688 2.74 2.286 5.537 4.157 6.217 4.157.68 0 2.655.879 4.388 1.953 3.629 2.249 12.29 2.765 12.29.731zm9.84-4.564c-.143-1.8-1.472-4.864-2.953-6.81-4.706-6.183-8.772-12.817-9.39-15.321-1.666-6.746-9.613-10.532-13.335-6.352-1.63 1.832-1.628 2.127.06 6.898 1.42 4.017 3.776 6.98 12.142 15.274 11.148 11.051 13.961 12.369 13.477 6.31zm-39.842-.34c.24-1.28-1.073-2.382-5.036-4.226-6.306-2.935-9.567-2.827-10.009.331-.23 1.647.375 2.477 2.406 3.303 7.49 3.046 12.138 3.264 12.639.592zm75.06-9.12c1.385-.987 3.087-1.332 4.626-.94 3.097.79 6.12-.165 6.12-1.934 0-1.628-2.001-2.803-8.304-4.877-5.396-1.776-10.37-4.318-17.193-8.785-2.645-1.733-6.542-3.715-8.659-4.404-2.117-.69-4.702-1.851-5.746-2.582-1.044-.73-2.494-1.328-3.222-1.328-.729 0-2.848-.735-4.71-1.633-3.583-1.728-5.444-1.24-7.42 1.943-1.505 2.426.463 4.961 4.365 5.624 2.982.506 16.282 6.758 18.723 8.8.565.473 3.301 1.356 6.08 1.962 2.778.606 5.202 1.608 5.386 2.228.184.62.587 2.306.897 3.746.798 3.717 5.357 4.814 9.058 2.18zm-34.785-10.766c.648-1.717-1.143-3.286-3.778-3.31-1.655-.014-2.368 2.877-1.043 4.224 1.207 1.227 4.23.654 4.82-.914z" fill="#969696"/></svg>