<?xml version="1.0" encoding="UTF-8" standalone="no"?>
<!-- Created with Inkscape (http://www.inkscape.org/) -->
<svg
   xmlns:dc="http://purl.org/dc/elements/1.1/"
   xmlns:cc="http://web.resource.org/cc/"
   xmlns:rdf="http://www.w3.org/1999/02/22-rdf-syntax-ns#"
   xmlns:svg="http://www.w3.org/2000/svg"
   xmlns="http://www.w3.org/2000/svg"
   xmlns:xlink="http://www.w3.org/1999/xlink"
   xmlns:sodipodi="http://sodipodi.sourceforge.net/DTD/sodipodi-0.dtd"
   xmlns:inkscape="http://www.inkscape.org/namespaces/inkscape"
   width="499.58356"
   height="524.33447"
   id="svg2"
   sodipodi:version="0.32"
   inkscape:version="0.45.1"
   sodipodi:docbase="C:\My Pictures\armor"
   sodipodi:docname="US-OF5.svg"
   inkscape:output_extension="org.inkscape.output.svg.inkscape"
   version="1.0">
  <defs
     id="defs4">
    <linearGradient
       id="linearGradient12101">
      <stop
         id="stop12103"
         offset="0"
         style="stop-color:#000000;stop-opacity:1;" />
      <stop
         style="stop-color:#ffffff;stop-opacity:1;"
         offset="0.5"
         id="stop12107" />
      <stop
         id="stop12105"
         offset="1"
         style="stop-color:#000000;stop-opacity:1;" />
    </linearGradient>
    <linearGradient
       id="linearGradient6161">
      <stop
         style="stop-color:#dcdcdc;stop-opacity:1;"
         offset="0"
         id="stop6163" />
      <stop
         style="stop-color:#000000;stop-opacity:1;"
         offset="1"
         id="stop6165" />
    </linearGradient>
    <linearGradient
       id="linearGradient5180">
      <stop
         style="stop-color:#53565b;stop-opacity:1;"
         offset="0"
         id="stop5182" />
      <stop
         style="stop-color:#dcdcdc;stop-opacity:1;"
         offset="1"
         id="stop5184" />
    </linearGradient>
    <linearGradient
       id="linearGradient5140">
      <stop
         style="stop-color:#292c2f;stop-opacity:1;"
         offset="0"
         id="stop5142" />
      <stop
         id="stop5150"
         offset="0.25"
         style="stop-color:#ffffff;stop-opacity:1;" />
      <stop
         style="stop-color:#292c2f;stop-opacity:1;"
         offset="0.5"
         id="stop5152" />
      <stop
         id="stop5154"
         offset="0.75"
         style="stop-color:#ffffff;stop-opacity:1;" />
      <stop
         id="stop5148"
         offset="1"
         style="stop-color:#292c2f;stop-opacity:1;" />
    </linearGradient>
    <linearGradient
       id="linearGradient4114">
      <stop
         style="stop-color:#b4b9be;stop-opacity:1;"
         offset="0"
         id="stop4116" />
      <stop
         style="stop-color:#b4b9be;stop-opacity:0;"
         offset="1"
         id="stop4118" />
    </linearGradient>
    <linearGradient
       inkscape:collect="always"
       xlink:href="#linearGradient5140"
       id="linearGradient5146"
       x1="184.87541"
       y1="655.24652"
       x2="563.55231"
       y2="366.72134"
       gradientUnits="userSpaceOnUse"
       gradientTransform="translate(40.05787,-8.5671145)" />
    <linearGradient
       inkscape:collect="always"
       xlink:href="#linearGradient6161"
       id="linearGradient7213"
       gradientUnits="userSpaceOnUse"
       x1="152.625"
       y1="559.72064"
       x2="362.36188"
       y2="559.72064"
       gradientTransform="translate(42.17678,-8.3535545)" />
    <linearGradient
       inkscape:collect="always"
       xlink:href="#linearGradient5180"
       id="linearGradient7216"
       gradientUnits="userSpaceOnUse"
       x1="306.5061"
       y1="584.06561"
       x2="355.5625"
       y2="626.40369"
       gradientTransform="translate(42.17678,-8.3535545)" />
    <linearGradient
       inkscape:collect="always"
       xlink:href="#linearGradient6161"
       id="linearGradient9166"
       x1="74.244423"
       y1="151.18668"
       x2="55.826202"
       y2="201.18668"
       gradientUnits="userSpaceOnUse" />
    <linearGradient
       inkscape:collect="always"
       xlink:href="#linearGradient12101"
       id="linearGradient10161"
       x1="159.52638"
       y1="111.08447"
       x2="338.15613"
       y2="400.73257"
       gradientUnits="userSpaceOnUse" />
    <linearGradient
       inkscape:collect="always"
       xlink:href="#linearGradient6161"
       id="linearGradient13086"
       x1="322.97101"
       y1="144.93362"
       x2="267.71936"
       y2="144.93362"
       gradientUnits="userSpaceOnUse" />
    <linearGradient
       inkscape:collect="always"
       xlink:href="#linearGradient6161"
       id="linearGradient13098"
       x1="440.69827"
       y1="209.77686"
       x2="408.98047"
       y2="174.24997"
       gradientUnits="userSpaceOnUse" />
    <linearGradient
       inkscape:collect="always"
       xlink:href="#linearGradient6161"
       id="linearGradient13108"
       x1="222.7529"
       y1="282.09189"
       x2="533.95721"
       y2="311.55637"
       gradientUnits="userSpaceOnUse" />
    <linearGradient
       inkscape:collect="always"
       xlink:href="#linearGradient6161"
       id="linearGradient15056"
       x1="282.47882"
       y1="411.94208"
       x2="349.91379"
       y2="366.28522"
       gradientUnits="userSpaceOnUse" />
    <linearGradient
       inkscape:collect="always"
       xlink:href="#linearGradient12101"
       id="linearGradient16035"
       x1="198.8557"
       y1="509.93945"
       x2="260.23322"
       y2="509.93945"
       gradientUnits="userSpaceOnUse" />
    <radialGradient
       inkscape:collect="always"
       xlink:href="#linearGradient4114"
       id="radialGradient2257"
       gradientUnits="userSpaceOnUse"
       gradientTransform="matrix(0.4532314,-4.6099308e-2,3.3285773e-2,0.3272533,187.27553,261.78293)"
       cx="7.0530348"
       cy="611.98212"
       fx="7.0530348"
       fy="611.98212"
       r="249.79179" />
    <radialGradient
       inkscape:collect="always"
       xlink:href="#linearGradient4114"
       id="radialGradient2260"
       gradientUnits="userSpaceOnUse"
       gradientTransform="matrix(0.4532314,-4.6099308e-2,3.3285773e-2,0.3272533,187.27555,261.78302)"
       cx="91.299866"
       cy="266.78873"
       fx="91.299866"
       fy="266.78873"
       r="249.79179" />
    <radialGradient
       inkscape:collect="always"
       xlink:href="#linearGradient4114"
       id="radialGradient2263"
       gradientUnits="userSpaceOnUse"
       gradientTransform="matrix(-0.7288851,3.3174216e-2,-1.2021205e-2,-0.2641234,950.98135,702.32589)"
       cx="970.45337"
       cy="292.36118"
       fx="970.45337"
       fy="292.36118"
       r="249.79179" />
    <radialGradient
       inkscape:collect="always"
       xlink:href="#linearGradient4114"
       id="radialGradient2266"
       gradientUnits="userSpaceOnUse"
       gradientTransform="matrix(-0.4128648,-2.7095555e-2,2.107056e-2,-0.3210597,703.83543,849.78881)"
       cx="746.81195"
       cy="257.75104"
       fx="746.81195"
       fy="257.75104"
       r="249.79179" />
    <radialGradient
       inkscape:collect="always"
       xlink:href="#linearGradient4114"
       id="radialGradient2269"
       gradientUnits="userSpaceOnUse"
       gradientTransform="matrix(-0.5137571,2.9399287e-2,-2.0421382e-2,-0.3568671,837.08569,819.59798)"
       cx="510.06912"
       cy="432.83243"
       fx="510.06912"
       fy="432.83243"
       r="249.79179" />
    <radialGradient
       inkscape:collect="always"
       xlink:href="#linearGradient4114"
       id="radialGradient2272"
       gradientUnits="userSpaceOnUse"
       gradientTransform="matrix(0.2645028,-2.3223113e-2,2.8770127e-2,0.3276812,326.85737,244.90608)"
       cx="696.23462"
       cy="318.09991"
       fx="696.23462"
       fy="318.09991"
       r="249.79179" />
  </defs>
  <sodipodi:namedview
     id="base"
     pagecolor="#ffffff"
     bordercolor="#666666"
     borderopacity="1.0"
     gridtolerance="10000"
     guidetolerance="10"
     objecttolerance="10"
     inkscape:pageopacity="0.0"
     inkscape:pageshadow="2"
     inkscape:zoom="0.70710678"
     inkscape:cx="184.27785"
     inkscape:cy="220.86721"
     inkscape:document-units="px"
     inkscape:current-layer="layer2"
     inkscape:window-width="1024"
     inkscape:window-height="712"
     inkscape:window-x="1020"
     inkscape:window-y="-4" />
  <metadata
     id="metadata7">
    <rdf:RDF>
      <cc:Work
         rdf:about="">
        <dc:format>image/svg+xml</dc:format>
        <dc:type
           rdf:resource="http://purl.org/dc/dcmitype/StillImage" />
      </cc:Work>
    </rdf:RDF>
  </metadata>
  <g
     inkscape:groupmode="layer"
     id="layer2"
     inkscape:label="border"
     transform="translate(-148.81543,-239.25468)"
     style="display:inline"
     sodipodi:insensitive="true">
    <path
       style="fill:#030304;fill-opacity:1;fill-rule:evenodd;stroke:none;stroke-width:1px;stroke-linecap:butt;stroke-linejoin:miter;stroke-opacity:1"
       d="M 355.7073,749.11218 C 373.57844,766.94474 406.51565,768.80448 429.70097,751.8901 C 433.7423,724.06591 437.06674,695.91085 435.00427,665.26952 C 481.05978,688.87377 496.00146,694.42745 552.68705,686.48272 C 562.308,658.22182 564.16789,627.8913 559.50558,595.82153 C 597.53501,589.8995 627.51101,571.89732 648.399,540.26314 C 631.58993,491.322 621.48178,480.48368 590.56777,445.3088 C 602.40344,405.89076 606.17353,387.49946 602.6896,346.81893 C 551.89032,326.99935 536.88344,325.53378 477.99375,329.25529 C 453.77939,275.30376 442.46494,268.57008 402.45804,239.25529 C 345.15203,285.68041 338.0134,282.77289 302.45803,340.59458 C 244.94637,338.29238 230.47241,333.72422 178.17232,358.36244 C 188.11307,404.88214 185.44188,411.97387 208.13033,461.94475 C 175.31922,497.66356 162.1853,501.71314 148.81543,550.80661 C 179.931,572.81575 193.52751,585.33056 239.38192,597.02109 C 235.94603,620.41343 232.16726,650.64097 258.35089,685.01422 C 308.32286,683.98696 312.08035,688.83902 376.447,668.29997 C 370.09326,696.07662 363.00657,722.75384 355.7073,749.11218 z "
       id="path2170"
       sodipodi:nodetypes="cccccccccccccccccc" />
    <path
       style="fill:url(#radialGradient2272);fill-opacity:1;fill-rule:evenodd;stroke:none;stroke-width:1px;stroke-linecap:butt;stroke-linejoin:miter;stroke-opacity:1"
       d="M 355.7073,749.11219 C 373.57844,766.94469 406.51565,768.80449 429.70097,751.89009 C 433.7423,724.06589 437.06674,695.91079 435.00427,665.26949 C 481.05978,688.87379 496.00146,694.42739 552.68705,686.48269 C 562.308,658.22179 564.16789,627.89129 559.50558,595.82148 C 597.53501,589.89948 627.51101,571.89728 648.399,540.26308 C 631.58993,491.32198 621.48178,480.48368 590.56777,445.30878 C 602.40344,405.89068 606.17353,387.49938 602.6896,346.81888 C 551.89032,326.99928 536.88344,325.53378 477.99375,329.25528 C 453.77939,275.30368 442.46494,268.57008 402.45804,239.25528 C 345.15203,285.68038 338.0134,282.77288 302.45803,340.59458 C 244.94637,338.29238 230.47241,333.72418 178.17232,358.36238 C 188.11307,404.88208 185.44188,411.97388 208.13033,461.94468 C 175.31922,497.66348 162.1853,501.71308 148.81543,550.80658 C 179.931,572.81568 193.52751,585.33048 239.38192,597.02108 C 235.94603,620.41339 232.16726,650.64099 258.35089,685.01419 C 308.32286,683.98689 312.08035,688.83899 376.447,668.29999 C 370.09326,696.07659 363.00657,722.75379 355.7073,749.11219 z "
       id="path5156"
       sodipodi:nodetypes="cccccccccccccccccc" />
    <path
       sodipodi:nodetypes="ccccccccccc"
       id="path3143"
       d="M 355.7073,749.11218 C 373.57844,766.94474 406.51565,768.80448 429.70097,751.8901 C 433.7423,724.06591 437.06674,695.91085 435.00427,665.26952 C 481.05978,688.87377 496.00146,694.42745 552.68705,686.48272 C 562.308,658.22182 564.16789,627.8913 559.50558,595.82153 C 597.53501,589.8995 627.51101,571.89732 648.399,540.26314 L 148.81543,550.80661 C 179.931,572.81575 193.52751,585.33056 239.38192,597.02109 C 235.94603,620.41343 232.16726,650.64097 258.35089,685.01422 C 308.32286,683.98696 312.08035,688.83902 376.447,668.29997 C 370.09326,696.07662 363.00657,722.75384 355.7073,749.11218 z "
       style="fill:url(#radialGradient2269);fill-opacity:1;fill-rule:evenodd;stroke:none;stroke-width:1px;stroke-linecap:butt;stroke-linejoin:miter;stroke-opacity:1" />
    <path
       style="fill:url(#radialGradient2266);fill-opacity:1;fill-rule:evenodd;stroke:none;stroke-width:1px;stroke-linecap:butt;stroke-linejoin:miter;stroke-opacity:1"
       d="M 355.7073,749.11218 C 373.57844,766.94474 406.51565,768.80448 429.70097,751.8901 C 433.7423,724.06591 437.06674,695.91085 435.00427,665.26952 L 376.447,668.29997 C 370.09326,696.07662 363.00657,722.75384 355.7073,749.11218 z "
       id="path4126"
       sodipodi:nodetypes="ccccc" />
    <path
       style="fill:url(#radialGradient2263);fill-opacity:1;fill-rule:evenodd;stroke:none;stroke-width:1px;stroke-linecap:butt;stroke-linejoin:miter;stroke-opacity:1"
       d="M 355.7073,749.11216 C 373.57844,766.94472 406.51565,768.80446 429.70097,751.89008 C 433.7423,724.06589 437.06674,695.91083 435.00427,665.2695 C 481.05978,688.87375 496.00146,694.42743 552.68705,686.4827 C 562.308,658.2218 564.16789,627.89128 559.50558,595.82151 C 597.53501,589.89948 627.51101,571.8973 648.399,540.26312 L 148.81543,550.80659 C 179.931,572.81573 193.52751,585.33054 239.38192,597.02107 C 235.94603,620.41341 232.16726,650.64095 258.35089,685.0142 C 308.32286,683.98694 312.08035,688.839 376.447,668.29995 C 370.09326,696.0766 363.00657,722.75382 355.7073,749.11216 z "
       id="path4130"
       sodipodi:nodetypes="ccccccccccc" />
    <path
       sodipodi:nodetypes="cccccccccccccccccc"
       id="path4136"
       d="M 355.7073,749.11219 C 373.57844,766.94469 406.51565,768.80449 429.70097,751.89009 C 433.7423,724.06589 437.06674,695.91079 435.00427,665.26949 C 481.05978,688.87379 496.0015,694.42739 552.687,686.48269 C 562.308,658.22179 564.1679,627.89129 559.5056,595.82149 C 597.535,589.89949 627.511,571.89729 648.399,540.26309 C 631.5899,491.32202 621.4818,480.48372 590.5678,445.30882 C 602.4034,405.89082 606.1735,387.49952 602.6896,346.81892 C 551.8903,326.99932 536.8834,325.53382 477.99375,329.25532 C 453.77939,275.30382 442.46494,268.57012 402.45804,239.25532 C 345.15203,285.68042 338.0134,282.77292 302.45803,340.59462 C 244.94637,338.29242 230.47241,333.72422 178.17232,358.36242 C 188.11307,404.88212 185.44188,411.97392 208.13033,461.94472 C 175.31922,497.66362 162.1853,501.71312 148.81543,550.80659 C 179.931,572.81569 193.52751,585.33059 239.38192,597.02109 C 235.94603,620.41339 232.16726,650.64099 258.35089,685.01419 C 308.32286,683.98699 312.08035,688.83899 376.447,668.29999 C 370.09326,696.07659 363.00657,722.75379 355.7073,749.11219 z "
       style="fill:url(#radialGradient2260);fill-opacity:1;fill-rule:evenodd;stroke:none;stroke-width:1px;stroke-linecap:butt;stroke-linejoin:miter;stroke-opacity:1" />
    <path
       style="fill:url(#radialGradient2257);fill-opacity:1;fill-rule:evenodd;stroke:none;stroke-width:1px;stroke-linecap:butt;stroke-linejoin:miter;stroke-opacity:1"
       d="M 355.70733,749.11219 C 373.57843,766.94469 406.51563,768.80449 429.70093,751.89009 C 433.74233,724.06589 437.06673,695.91079 435.00423,665.26949 C 481.05983,688.87369 496.00146,694.42739 552.68706,686.48269 C 562.30806,658.22179 564.16796,627.89129 559.50566,595.82146 C 597.53506,589.89946 627.51106,571.89726 648.39906,540.26306 C 631.58996,491.32196 621.48186,480.48366 590.56776,445.30876 C 602.40346,405.89066 606.17356,387.49936 602.68966,346.81886 C 551.89036,326.99926 536.88346,325.53376 477.99373,329.25526 C 453.77943,275.3037 442.46493,268.57002 402.45803,239.25523 C 345.15203,285.68035 338.01343,282.77283 302.45803,340.59456 C 244.94633,338.29236 230.47243,333.72416 178.17233,358.36236 C 188.11303,404.88206 185.44193,411.97376 208.13033,461.94466 C 175.31923,497.66346 162.18533,501.71306 148.81543,550.80656 C 179.93103,572.81566 193.52753,585.33046 239.38193,597.02106 C 235.94603,620.41336 232.16723,650.64089 258.35093,685.01419 C 308.32283,683.98689 312.08033,688.83899 376.44703,668.29989 C 370.09323,696.07659 363.00653,722.75379 355.70733,749.11219 z "
       id="path9168"
       sodipodi:nodetypes="cccccccccccccccccc" />
  </g>
  <g
     inkscape:label="Upper"
     inkscape:groupmode="layer"
     id="layer1"
     transform="translate(-148.81543,-239.25468)"
     style="display:inline"
     sodipodi:insensitive="true">
    <path
       style="fill:url(#linearGradient5146);fill-opacity:1;fill-rule:evenodd;stroke:none;stroke-width:1px;stroke-linecap:butt;stroke-linejoin:miter;stroke-opacity:1"
       d="M 362.01425,747.65284 C 379.23293,762.53739 402.45502,764.29532 424.79388,750.3322 C 428.68768,723.49511 430.15088,684.02033 428.16368,654.46603 C 472.53778,677.2329 493.68818,689.83956 548.30418,682.17668 C 557.57388,654.91837 557.36588,621.91384 552.87378,590.98177 C 589.51488,585.26983 623.48578,570.192 643.61118,539.68007 C 627.41578,492.47516 614.33738,480.73562 584.55198,446.8086 C 595.95558,408.78894 600.33798,390.30009 596.98128,351.06274 C 548.03658,331.94627 531.82758,332.03269 475.08788,335.62218 C 451.75758,283.58462 440.85618,274.08983 402.3099,245.815 C 347.09608,290.59315 340.46807,290.78878 306.21078,346.55921 C 250.79882,344.33867 234.85328,337.93258 184.46261,361.69674 C 194.04044,406.5661 193.46677,415.65625 215.32688,463.85438 C 183.71368,498.30603 168.93553,504.47972 156.05378,551.83155 C 186.03336,573.05991 200.7572,581.86297 244.93751,593.13878 C 241.62707,615.70126 235.61126,647.10644 260.83895,680.26028 C 308.9865,679.26946 322.99022,679.69939 385.00691,659.88898 C 378.88514,686.68023 369.04702,722.22959 362.01425,747.65284 z "
       id="path4152"
       sodipodi:nodetypes="cccccccccccccccccc" />
  </g>
  <g
     inkscape:groupmode="layer"
     id="layer5"
     inkscape:label="Shadows"
     style="display:inline"
     sodipodi:insensitive="true">
    <path
       transform="translate(-148.81543,-239.25468)"
       style="fill:url(#linearGradient7216);fill-opacity:1;fill-rule:evenodd;stroke:none;stroke-width:1px;stroke-linecap:butt;stroke-linejoin:miter;stroke-opacity:1"
       d="M 405.73928,530.07113 L 385.92678,654.00863 C 332.00574,670.31747 323.41926,675.35933 265.20711,675.93541 C 277.38277,625.94717 385.67584,540.65129 405.73928,530.07113 z "
       id="path5178"
       sodipodi:nodetypes="cccc" />
    <path
       transform="translate(-148.81543,-239.25468)"
       style="fill:url(#linearGradient7213);fill-opacity:1;fill-rule:evenodd;stroke:none;stroke-width:1px;stroke-linecap:butt;stroke-linejoin:miter;stroke-opacity:1"
       d="M 159.30178,549.88363 C 243.43886,515.53919 273.39299,500.91766 404.03867,522.69416 C 324.32784,547.13116 321.48637,545.46055 249.27068,590.31125 C 216.09252,580.16883 185.17176,567.66641 159.30178,549.88363 z "
       id="path5190"
       sodipodi:nodetypes="cccc" />
    <path
       style="fill:url(#linearGradient9166);fill-opacity:1;fill-rule:evenodd;stroke:none;stroke-width:1px;stroke-linecap:butt;stroke-linejoin:miter;stroke-opacity:1"
       d="M 69.473241,223.63731 C 48.193044,181.86491 49.157283,164.09827 39.244426,124.81914 C 133.15662,170.73341 147.46057,164.56568 256.32621,277.55421 C 150.15857,234.94812 161.55608,241.45275 69.473241,223.63731 z "
       id="path7220"
       sodipodi:nodetypes="cccc" />
    <path
       style="fill:url(#linearGradient10161);fill-opacity:1;fill-rule:evenodd;stroke:none;stroke-width:1px;stroke-linecap:butt;stroke-linejoin:miter;stroke-opacity:1"
       d="M 257.51945,275.12353 C 221.42396,212.80012 186.28898,159.65575 155.25,111.08447 L 160.875,111.20947 C 200.44438,163.04396 221.57581,203.99138 257.51945,275.12353 z "
       id="path10153"
       sodipodi:nodetypes="cccc" />
    <path
       style="fill:url(#linearGradient13086);fill-opacity:1;fill-rule:evenodd;stroke:none;stroke-width:1px;stroke-linecap:butt;stroke-linejoin:miter;stroke-opacity:1"
       d="M 254.25,11.959474 C 280.46537,30.032396 303.52587,50.274305 322.97102,98.21425 C 305.73967,158.11209 284.24473,218.00992 260.48046,277.90776 C 250.34769,188.45274 255.98828,100.57505 254.25,11.959474 z "
       id="path12109"
       sodipodi:nodetypes="cccc" />
    <path
       style="fill:url(#linearGradient13098);fill-opacity:1;fill-rule:evenodd;stroke:none;stroke-width:1px;stroke-linecap:butt;stroke-linejoin:miter;stroke-opacity:1"
       d="M 260.75,279.83447 C 316.10511,252.46957 342.89321,242.25602 433.25,203.45947 C 443.46475,174.08447 444.76772,144.70947 445.75,115.33447 C 382.66006,169.69338 316.44377,223.01017 260.75,279.83447 z "
       id="path13088"
       sodipodi:nodetypes="cccc" />
    <path
       style="fill:url(#linearGradient13108);fill-opacity:1;fill-rule:evenodd;stroke:none;stroke-width:1px;stroke-linecap:butt;stroke-linejoin:miter;stroke-opacity:1"
       d="M 263.75083,283.21106 C 373.62017,263.95144 361.9234,279.7485 488.61078,300.18162 C 470.90034,329.971 436.57308,342.55435 401.9902,348.61844 C 358.50617,320.75922 350.51085,317.36244 263.75083,283.21106 z "
       id="path13100"
       sodipodi:nodetypes="cccc" />
    <path
       style="fill:url(#linearGradient15056);fill-opacity:1;fill-rule:evenodd;stroke:none;stroke-width:1px;stroke-linecap:butt;stroke-linejoin:miter;stroke-opacity:1"
       d="M 393.85848,439.30488 C 351.24309,444.51694 315.21213,432.71925 283.90337,408.72251 C 281.71342,369.83164 278.69008,341.19382 261.09918,292.0499 C 323.86544,348.19806 353.72704,387.65897 393.85848,439.30488 z "
       id="path13110"
       sodipodi:nodetypes="cccc" />
    <path
       style="fill:url(#linearGradient16035);fill-opacity:1;fill-rule:evenodd;stroke:none;stroke-width:1px;stroke-linecap:butt;stroke-linejoin:miter;stroke-opacity:1"
       d="M 213.21966,508.24608 C 222.85192,493.25968 281.17573,498.77184 276,511.17546 C 258.20269,524.34007 227.05624,524.24747 213.21966,508.24608 z "
       id="path15058"
       sodipodi:nodetypes="ccc" />
  </g>
</svg>
