<?xml version="1.0" encoding="UTF-8" standalone="no"?>
<!-- Created with Inkscape (http://www.inkscape.org/) -->
<svg
   xmlns:dc="http://purl.org/dc/elements/1.1/"
   xmlns:cc="http://web.resource.org/cc/"
   xmlns:rdf="http://www.w3.org/1999/02/22-rdf-syntax-ns#"
   xmlns:svg="http://www.w3.org/2000/svg"
   xmlns="http://www.w3.org/2000/svg"
   xmlns:xlink="http://www.w3.org/1999/xlink"
   xmlns:sodipodi="http://sodipodi.sourceforge.net/DTD/sodipodi-0.dtd"
   xmlns:inkscape="http://www.inkscape.org/namespaces/inkscape"
   width="499.58356"
   height="524.33447"
   id="svg2"
   sodipodi:version="0.32"
   inkscape:version="0.45.1"
   sodipodi:docbase="C:\My Pictures\armor"
   sodipodi:docname="US-OF4.svg"
   inkscape:output_extension="org.inkscape.output.svg.inkscape"
   version="1.0">
  <defs
     id="defs4">
    <linearGradient
       id="linearGradient12101">
      <stop
         id="stop12103"
         offset="0"
         style="stop-color:#824b00;stop-opacity:1;" />
      <stop
         style="stop-color:#deab2d;stop-opacity:1;"
         offset="0.5"
         id="stop12107" />
      <stop
         id="stop12105"
         offset="1"
         style="stop-color:#824b00;stop-opacity:1;" />
    </linearGradient>
    <linearGradient
       id="linearGradient10147">
      <stop
         style="stop-color:#d9bd55;stop-opacity:1;"
         offset="0"
         id="stop10149" />
      <stop
         style="stop-color:#d9bd55;stop-opacity:0;"
         offset="1"
         id="stop10151" />
    </linearGradient>
    <linearGradient
       id="linearGradient6161">
      <stop
         style="stop-color:#deab2d;stop-opacity:1;"
         offset="0"
         id="stop6163" />
      <stop
         style="stop-color:#824b00;stop-opacity:1;"
         offset="1"
         id="stop6165" />
    </linearGradient>
    <linearGradient
       id="linearGradient5180">
      <stop
         style="stop-color:#824b00;stop-opacity:1;"
         offset="0"
         id="stop5182" />
      <stop
         style="stop-color:#b07b00;stop-opacity:1;"
         offset="1"
         id="stop5184" />
    </linearGradient>
    <linearGradient
       id="linearGradient5140">
      <stop
         style="stop-color:#c38c00;stop-opacity:1;"
         offset="0"
         id="stop5142" />
      <stop
         id="stop5150"
         offset="0.25"
         style="stop-color:#e9de94;stop-opacity:1;" />
      <stop
         style="stop-color:#c38c00;stop-opacity:1;"
         offset="0.5"
         id="stop5152" />
      <stop
         id="stop5154"
         offset="0.75"
         style="stop-color:#e9de94;stop-opacity:1;" />
      <stop
         id="stop5148"
         offset="1"
         style="stop-color:#c38c00;stop-opacity:1;" />
    </linearGradient>
    <linearGradient
       id="linearGradient4160">
      <stop
         style="stop-color:#e9de94;stop-opacity:1;"
         offset="0"
         id="stop4162" />
      <stop
         style="stop-color:#b07b00;stop-opacity:1"
         offset="1"
         id="stop4164" />
    </linearGradient>
    <linearGradient
       id="linearGradient4146">
      <stop
         id="stop4148"
         offset="0"
         style="stop-color:#e9de94;stop-opacity:1;" />
      <stop
         id="stop4150"
         offset="1"
         style="stop-color:#e9de94;stop-opacity:0;" />
    </linearGradient>
    <linearGradient
       id="linearGradient4114">
      <stop
         style="stop-color:#865100;stop-opacity:1;"
         offset="0"
         id="stop4116" />
      <stop
         style="stop-color:#865100;stop-opacity:0;"
         offset="1"
         id="stop4118" />
    </linearGradient>
    <radialGradient
       inkscape:collect="always"
       xlink:href="#linearGradient4114"
       id="radialGradient4120"
       cx="458.67865"
       cy="708.93274"
       fx="458.67865"
       fy="708.93274"
       r="249.79179"
       gradientTransform="matrix(-0.729034,-2.9722181e-2,2.033062e-2,-0.4986741,888.71761,928.29555)"
       gradientUnits="userSpaceOnUse" />
    <radialGradient
       inkscape:collect="always"
       xlink:href="#linearGradient4114"
       id="radialGradient4128"
       gradientUnits="userSpaceOnUse"
       gradientTransform="matrix(-0.4128648,-2.7095555e-2,2.107056e-2,-0.3210597,662.53811,858.07427)"
       cx="746.81195"
       cy="257.75104"
       fx="746.81195"
       fy="257.75104"
       r="249.79179" />
    <radialGradient
       inkscape:collect="always"
       xlink:href="#linearGradient4114"
       id="radialGradient4134"
       gradientUnits="userSpaceOnUse"
       gradientTransform="matrix(-0.7288851,3.3174216e-2,-1.2021205e-2,-0.2641234,909.68403,710.61137)"
       cx="1026.5966"
       cy="652.80103"
       fx="1026.5966"
       fy="652.80103"
       r="249.79179" />
    <radialGradient
       inkscape:collect="always"
       xlink:href="#linearGradient4146"
       id="radialGradient4144"
       cx="91.299866"
       cy="266.78873"
       fx="91.299866"
       fy="266.78873"
       r="249.79179"
       gradientTransform="matrix(0.4532314,-4.6099308e-2,3.3285773e-2,0.3272533,145.97823,270.06845)"
       gradientUnits="userSpaceOnUse" />
    <linearGradient
       inkscape:collect="always"
       xlink:href="#linearGradient5140"
       id="linearGradient5146"
       x1="184.87541"
       y1="655.24652"
       x2="563.55231"
       y2="366.72134"
       gradientUnits="userSpaceOnUse"
       gradientTransform="translate(40.05787,-8.5671145)" />
    <radialGradient
       inkscape:collect="always"
       xlink:href="#linearGradient4146"
       id="radialGradient5158"
       gradientUnits="userSpaceOnUse"
       gradientTransform="matrix(0.2645028,-2.3223113e-2,2.8770127e-2,0.3276812,285.56005,253.19096)"
       cx="695.27075"
       cy="318.46243"
       fx="695.27075"
       fy="318.46243"
       r="249.79179" />
    <linearGradient
       inkscape:collect="always"
       xlink:href="#linearGradient5180"
       id="linearGradient5186"
       x1="322.5061"
       y1="596.06561"
       x2="363.5625"
       y2="605.40369"
       gradientUnits="userSpaceOnUse" />
    <linearGradient
       inkscape:collect="always"
       xlink:href="#linearGradient6161"
       id="linearGradient6167"
       x1="152.625"
       y1="559.72064"
       x2="362.36188"
       y2="559.72064"
       gradientUnits="userSpaceOnUse" />
    <radialGradient
       inkscape:collect="always"
       xlink:href="#linearGradient4146"
       id="radialGradient7176"
       gradientUnits="userSpaceOnUse"
       gradientTransform="matrix(0.2645028,-2.3223113e-2,2.8770127e-2,0.3276812,285.56005,253.19096)"
       cx="696.23462"
       cy="318.09991"
       fx="696.23462"
       fy="318.09991"
       r="249.79179" />
    <radialGradient
       inkscape:collect="always"
       xlink:href="#linearGradient4114"
       id="radialGradient7178"
       gradientUnits="userSpaceOnUse"
       gradientTransform="matrix(-0.729034,-2.9722181e-2,2.033062e-2,-0.4986741,888.71761,928.29555)"
       cx="458.67865"
       cy="708.93274"
       fx="458.67865"
       fy="708.93274"
       r="249.79179" />
    <radialGradient
       inkscape:collect="always"
       xlink:href="#linearGradient4114"
       id="radialGradient7180"
       gradientUnits="userSpaceOnUse"
       gradientTransform="matrix(-0.4128648,-2.7095555e-2,2.107056e-2,-0.3210597,662.53811,858.07427)"
       cx="746.81195"
       cy="257.75104"
       fx="746.81195"
       fy="257.75104"
       r="249.79179" />
    <radialGradient
       inkscape:collect="always"
       xlink:href="#linearGradient4114"
       id="radialGradient7182"
       gradientUnits="userSpaceOnUse"
       gradientTransform="matrix(-0.7288851,3.3174216e-2,-1.2021205e-2,-0.2641234,909.68403,710.61137)"
       cx="1026.5966"
       cy="652.80103"
       fx="1026.5966"
       fy="652.80103"
       r="249.79179" />
    <radialGradient
       inkscape:collect="always"
       xlink:href="#linearGradient4146"
       id="radialGradient7184"
       gradientUnits="userSpaceOnUse"
       gradientTransform="matrix(0.4532314,-4.6099308e-2,3.3285773e-2,0.3272533,145.97823,270.06845)"
       cx="91.299866"
       cy="266.78873"
       fx="91.299866"
       fy="266.78873"
       r="249.79179" />
    <linearGradient
       inkscape:collect="always"
       xlink:href="#linearGradient6161"
       id="linearGradient7213"
       gradientUnits="userSpaceOnUse"
       x1="152.625"
       y1="559.72064"
       x2="362.36188"
       y2="559.72064"
       gradientTransform="translate(42.17678,-8.3535545)" />
    <linearGradient
       inkscape:collect="always"
       xlink:href="#linearGradient5180"
       id="linearGradient7216"
       gradientUnits="userSpaceOnUse"
       x1="322.5061"
       y1="596.06561"
       x2="363.5625"
       y2="605.40369"
       gradientTransform="translate(42.17678,-8.3535545)" />
    <linearGradient
       inkscape:collect="always"
       xlink:href="#linearGradient6161"
       id="linearGradient9166"
       x1="74.244423"
       y1="151.18668"
       x2="55.826202"
       y2="201.18668"
       gradientUnits="userSpaceOnUse" />
    <radialGradient
       inkscape:collect="always"
       xlink:href="#linearGradient10147"
       id="radialGradient9170"
       gradientUnits="userSpaceOnUse"
       gradientTransform="matrix(0.4532314,-4.6099308e-2,3.3285773e-2,0.3272533,145.97823,270.06845)"
       cx="7.0530348"
       cy="611.98212"
       fx="7.0530348"
       fy="611.98212"
       r="249.79179" />
    <linearGradient
       inkscape:collect="always"
       xlink:href="#linearGradient12101"
       id="linearGradient10161"
       x1="104.23959"
       y1="7.7045135"
       x2="253.3033"
       y2="272.03915"
       gradientUnits="userSpaceOnUse" />
    <linearGradient
       inkscape:collect="always"
       xlink:href="#linearGradient6161"
       id="linearGradient13086"
       x1="322.97101"
       y1="144.93362"
       x2="267.71936"
       y2="144.93362"
       gradientUnits="userSpaceOnUse" />
    <linearGradient
       inkscape:collect="always"
       xlink:href="#linearGradient6161"
       id="linearGradient13098"
       x1="440.69827"
       y1="209.77686"
       x2="408.98047"
       y2="174.24997"
       gradientUnits="userSpaceOnUse" />
    <linearGradient
       inkscape:collect="always"
       xlink:href="#linearGradient6161"
       id="linearGradient13108"
       x1="502.7529"
       y1="315.09189"
       x2="288.14603"
       y2="287.51471"
       gradientUnits="userSpaceOnUse" />
    <linearGradient
       inkscape:collect="always"
       xlink:href="#linearGradient5180"
       id="linearGradient15056"
       x1="327.47882"
       y1="371.94208"
       x2="288.49957"
       y2="404.46899"
       gradientUnits="userSpaceOnUse" />
    <linearGradient
       inkscape:collect="always"
       xlink:href="#linearGradient12101"
       id="linearGradient16035"
       x1="185.56729"
       y1="508.37265"
       x2="268.01138"
       y2="508.36008"
       gradientUnits="userSpaceOnUse" />
  </defs>
  <sodipodi:namedview
     id="base"
     pagecolor="#ffffff"
     bordercolor="#666666"
     borderopacity="1.0"
     gridtolerance="10000"
     guidetolerance="10"
     objecttolerance="10"
     inkscape:pageopacity="0.0"
     inkscape:pageshadow="2"
     inkscape:zoom="0.5"
     inkscape:cx="123.4227"
     inkscape:cy="352.59183"
     inkscape:document-units="px"
     inkscape:current-layer="layer5"
     inkscape:window-width="1024"
     inkscape:window-height="712"
     inkscape:window-x="1020"
     inkscape:window-y="-4" />
  <metadata
     id="metadata7">
    <rdf:RDF>
      <cc:Work
         rdf:about="">
        <dc:format>image/svg+xml</dc:format>
        <dc:type
           rdf:resource="http://purl.org/dc/dcmitype/StillImage" />
      </cc:Work>
    </rdf:RDF>
  </metadata>
  <g
     inkscape:groupmode="layer"
     id="layer2"
     inkscape:label="border"
     transform="translate(-148.81543,-239.25468)"
     sodipodi:insensitive="true">
    <g
       id="g7150"
       transform="translate(41.297317,-8.2854573)">
      <path
         sodipodi:nodetypes="cccccccccccccccccc"
         id="path2170"
         d="M 314.40998,757.39764 C 332.28112,775.2302 365.21833,777.08994 388.40365,760.17556 C 392.44498,732.35137 395.76942,704.19631 393.70695,673.55498 C 439.76246,697.15923 454.70414,702.71291 511.38973,694.76818 C 521.01068,666.50728 522.87057,636.17676 518.20826,604.10699 C 556.23769,598.18496 586.21369,580.18278 607.10168,548.5486 C 590.29261,499.60746 580.18446,488.76914 549.27045,453.59426 C 561.10612,414.17622 564.87621,395.78492 561.39228,355.10439 C 510.593,335.28481 495.58612,333.81924 436.69643,337.54075 C 412.48207,283.58922 401.16762,276.85554 361.16072,247.54075 C 303.85471,293.96587 296.71608,291.05835 261.16071,348.88004 C 203.64905,346.57784 189.17509,342.00968 136.875,366.6479 C 146.81575,413.1676 144.14456,420.25933 166.83301,470.23021 C 134.0219,505.94902 120.88798,509.9986 107.51811,559.09207 C 138.63368,581.10121 152.23019,593.61602 198.0846,605.30655 C 194.64871,628.69889 190.86994,658.92643 217.05357,693.29968 C 267.02554,692.27242 270.78303,697.12448 335.14968,676.58543 C 328.79594,704.36208 321.70925,731.0393 314.40998,757.39764 z "
         style="fill:#cc9900;fill-opacity:1;fill-rule:evenodd;stroke:none;stroke-width:1px;stroke-linecap:butt;stroke-linejoin:miter;stroke-opacity:1" />
      <path
         sodipodi:nodetypes="cccccccccccccccccc"
         id="path5156"
         d="M 314.40998,757.39703 C 332.28112,775.22959 365.21833,777.08933 388.40365,760.17495 C 392.44498,732.35076 395.76942,704.1957 393.70695,673.55437 C 439.76246,697.15862 454.70414,702.7123 511.38973,694.76757 C 521.01068,666.50667 522.87057,636.17615 518.20826,604.10638 C 556.23769,598.18435 586.21369,580.18217 607.10168,548.54799 C 590.29261,499.60685 580.18446,488.76853 549.27045,453.59365 C 561.10612,414.17561 564.87621,395.78431 561.39228,355.10378 C 510.593,335.2842 495.58612,333.81863 436.69643,337.54014 C 412.48207,283.58861 401.16762,276.85493 361.16072,247.54014 C 303.85471,293.96526 296.71608,291.05774 261.16071,348.87943 C 203.64905,346.57723 189.17509,342.00907 136.875,366.64729 C 146.81575,413.16699 144.14456,420.25872 166.83301,470.2296 C 134.0219,505.94841 120.88798,509.99799 107.51811,559.09146 C 138.63368,581.1006 152.23019,593.61541 198.0846,605.30594 C 194.64871,628.69828 190.86994,658.92582 217.05357,693.29907 C 267.02554,692.27181 270.78303,697.12387 335.14968,676.58482 C 328.79594,704.36147 321.70925,731.03869 314.40998,757.39703 z "
         style="fill:url(#radialGradient7176);fill-opacity:1;fill-rule:evenodd;stroke:none;stroke-width:1px;stroke-linecap:butt;stroke-linejoin:miter;stroke-opacity:1" />
      <path
         style="fill:url(#radialGradient7178);fill-opacity:1;fill-rule:evenodd;stroke:none;stroke-width:1px;stroke-linecap:butt;stroke-linejoin:miter;stroke-opacity:1"
         d="M 314.40998,757.39764 C 332.28112,775.2302 365.21833,777.08994 388.40365,760.17556 C 392.44498,732.35137 395.76942,704.19631 393.70695,673.55498 C 439.76246,697.15923 454.70414,702.71291 511.38973,694.76818 C 521.01068,666.50728 522.87057,636.17676 518.20826,604.10699 C 556.23769,598.18496 586.21369,580.18278 607.10168,548.5486 L 107.51811,559.09207 C 138.63368,581.10121 152.23019,593.61602 198.0846,605.30655 C 194.64871,628.69889 190.86994,658.92643 217.05357,693.29968 C 267.02554,692.27242 270.78303,697.12448 335.14968,676.58543 C 328.79594,704.36208 321.70925,731.0393 314.40998,757.39764 z "
         id="path3143"
         sodipodi:nodetypes="ccccccccccc" />
      <path
         sodipodi:nodetypes="ccccc"
         id="path4126"
         d="M 314.40998,757.39764 C 332.28112,775.2302 365.21833,777.08994 388.40365,760.17556 C 392.44498,732.35137 395.76942,704.19631 393.70695,673.55498 L 335.14968,676.58543 C 328.79594,704.36208 321.70925,731.0393 314.40998,757.39764 z "
         style="fill:url(#radialGradient7180);fill-opacity:1;fill-rule:evenodd;stroke:none;stroke-width:1px;stroke-linecap:butt;stroke-linejoin:miter;stroke-opacity:1" />
      <path
         sodipodi:nodetypes="ccccccccccc"
         id="path4130"
         d="M 314.40998,757.39764 C 332.28112,775.2302 365.21833,777.08994 388.40365,760.17556 C 392.44498,732.35137 395.76942,704.19631 393.70695,673.55498 C 439.76246,697.15923 454.70414,702.71291 511.38973,694.76818 C 521.01068,666.50728 522.87057,636.17676 518.20826,604.10699 C 556.23769,598.18496 586.21369,580.18278 607.10168,548.5486 L 107.51811,559.09207 C 138.63368,581.10121 152.23019,593.61602 198.0846,605.30655 C 194.64871,628.69889 190.86994,658.92643 217.05357,693.29968 C 267.02554,692.27242 270.78303,697.12448 335.14968,676.58543 C 328.79594,704.36208 321.70925,731.0393 314.40998,757.39764 z "
         style="fill:url(#radialGradient7182);fill-opacity:1;fill-rule:evenodd;stroke:none;stroke-width:1px;stroke-linecap:butt;stroke-linejoin:miter;stroke-opacity:1" />
      <path
         style="fill:url(#radialGradient7184);fill-opacity:1;fill-rule:evenodd;stroke:none;stroke-width:1px;stroke-linecap:butt;stroke-linejoin:miter;stroke-opacity:1"
         d="M 314.40998,757.39764 C 332.28112,775.2302 365.21833,777.08994 388.40365,760.17556 C 392.44498,732.35137 395.76942,704.19631 393.70695,673.55498 C 439.76246,697.15923 454.70414,702.71291 511.38973,694.76818 C 521.01068,666.50728 522.87057,636.17676 518.20826,604.10699 C 556.23769,598.18496 586.21369,580.18278 607.10168,548.5486 C 590.29261,499.60746 580.18446,488.76914 549.27045,453.59426 C 561.10612,414.17622 564.87621,395.78492 561.39228,355.10439 C 510.593,335.28481 495.58612,333.81924 436.69643,337.54075 C 412.48207,283.58922 401.16762,276.85554 361.16072,247.54075 C 303.85471,293.96587 296.71608,291.05835 261.16071,348.88004 C 203.64905,346.57784 189.17509,342.00968 136.875,366.6479 C 146.81575,413.1676 144.14456,420.25933 166.83301,470.23021 C 134.0219,505.94902 120.88798,509.9986 107.51811,559.09207 C 138.63368,581.10121 152.23019,593.61602 198.0846,605.30655 C 194.64871,628.69889 190.86994,658.92643 217.05357,693.29968 C 267.02554,692.27242 270.78303,697.12448 335.14968,676.58543 C 328.79594,704.36208 321.70925,731.0393 314.40998,757.39764 z "
         id="path4136"
         sodipodi:nodetypes="cccccccccccccccccc" />
      <path
         sodipodi:nodetypes="cccccccccccccccccc"
         id="path9168"
         d="M 314.40998,757.39764 C 332.28112,775.2302 365.21833,777.08994 388.40365,760.17556 C 392.44498,732.35137 395.76942,704.19631 393.70695,673.55498 C 439.76246,697.15923 454.70414,702.71291 511.38973,694.76818 C 521.01068,666.50728 522.87057,636.17676 518.20826,604.10699 C 556.23769,598.18496 586.21369,580.18278 607.10168,548.5486 C 590.29261,499.60746 580.18446,488.76914 549.27045,453.59426 C 561.10612,414.17622 564.87621,395.78492 561.39228,355.10439 C 510.593,335.28481 495.58612,333.81924 436.69643,337.54075 C 412.48207,283.58922 401.16762,276.85554 361.16072,247.54075 C 303.85471,293.96587 296.71608,291.05835 261.16071,348.88004 C 203.64905,346.57784 189.17509,342.00968 136.875,366.6479 C 146.81575,413.1676 144.14456,420.25933 166.83301,470.23021 C 134.0219,505.94902 120.88798,509.9986 107.51811,559.09207 C 138.63368,581.10121 152.23019,593.61602 198.0846,605.30655 C 194.64871,628.69889 190.86994,658.92643 217.05357,693.29968 C 267.02554,692.27242 270.78303,697.12448 335.14968,676.58543 C 328.79594,704.36208 321.70925,731.0393 314.40998,757.39764 z "
         style="fill:url(#radialGradient9170);fill-opacity:1;fill-rule:evenodd;stroke:none;stroke-width:1px;stroke-linecap:butt;stroke-linejoin:miter;stroke-opacity:1" />
    </g>
  </g>
  <g
     inkscape:label="Upper"
     inkscape:groupmode="layer"
     id="layer1"
     transform="translate(-148.81543,-239.25468)"
     style="display:inline"
     sodipodi:insensitive="true">
    <path
       style="fill:url(#linearGradient5146);fill-opacity:1;fill-rule:evenodd;stroke:none;stroke-width:1px;stroke-linecap:butt;stroke-linejoin:miter;stroke-opacity:1"
       d="M 362.01425,747.65284 C 379.23293,762.53739 402.45502,764.29532 424.79388,750.3322 C 428.68768,723.49511 430.15088,684.02033 428.16368,654.46603 C 472.53778,677.2329 493.68818,689.83956 548.30418,682.17668 C 557.57388,654.91837 557.36588,621.91384 552.87378,590.98177 C 589.51488,585.26983 623.48578,570.192 643.61118,539.68007 C 627.41578,492.47516 614.33738,480.73562 584.55198,446.8086 C 595.95558,408.78894 600.33798,390.30009 596.98128,351.06274 C 548.03658,331.94627 531.82758,332.03269 475.08788,335.62218 C 451.75758,283.58462 440.85618,274.08983 402.3099,245.815 C 347.09608,290.59315 340.46807,290.78878 306.21078,346.55921 C 250.79882,344.33867 234.85328,337.93258 184.46261,361.69674 C 194.04044,406.5661 193.46677,415.65625 215.32688,463.85438 C 183.71368,498.30603 168.93553,504.47972 156.05378,551.83155 C 186.03336,573.05991 200.7572,581.86297 244.93751,593.13878 C 241.62707,615.70126 235.61126,647.10644 260.83895,680.26028 C 308.9865,679.26946 322.99022,679.69939 385.00691,659.88898 C 378.88514,686.68023 369.04702,722.22959 362.01425,747.65284 z "
       id="path4152"
       sodipodi:nodetypes="cccccccccccccccccc" />
  </g>
  <g
     inkscape:groupmode="layer"
     id="layer5"
     inkscape:label="Shadows"
     style="display:inline"
     sodipodi:insensitive="true">
    <path
       transform="translate(-148.81543,-239.25468)"
       style="fill:url(#linearGradient7216);fill-opacity:1;fill-rule:evenodd;stroke:none;stroke-width:1px;stroke-linecap:butt;stroke-linejoin:miter;stroke-opacity:1"
       d="M 405.73928,530.07113 L 385.92678,654.00863 C 332.00574,670.31747 323.41926,675.35933 265.20711,675.93541 C 277.38277,625.94717 385.67584,540.65129 405.73928,530.07113 z "
       id="path5178"
       sodipodi:nodetypes="cccc" />
    <path
       transform="translate(-148.81543,-239.25468)"
       style="fill:url(#linearGradient7213);fill-opacity:1;fill-rule:evenodd;stroke:none;stroke-width:1px;stroke-linecap:butt;stroke-linejoin:miter;stroke-opacity:1"
       d="M 159.30178,549.88363 C 243.43886,515.53919 273.39299,500.91766 404.03867,522.69416 C 324.32784,547.13116 321.48637,545.46055 249.27068,590.31125 C 216.09252,580.16883 185.17176,567.66641 159.30178,549.88363 z "
       id="path5190"
       sodipodi:nodetypes="cccc" />
    <path
       style="fill:url(#linearGradient9166);fill-opacity:1;fill-rule:evenodd;stroke:none;stroke-width:1px;stroke-linecap:butt;stroke-linejoin:miter;stroke-opacity:1"
       d="M 69.473241,223.63731 C 48.193044,181.86491 49.157283,164.09827 39.244426,124.81914 C 133.15662,170.73341 147.46057,164.56568 256.32621,277.55421 C 150.15857,234.94812 161.55608,241.45275 69.473241,223.63731 z "
       id="path7220"
       sodipodi:nodetypes="cccc" />
    <path
       style="fill:url(#linearGradient10161);fill-opacity:1;fill-rule:evenodd;stroke:none;stroke-width:1px;stroke-linecap:butt;stroke-linejoin:miter;stroke-opacity:1"
       d="M 257.51945,275.12353 C 221.42396,212.80012 186.28898,159.65575 155.25,111.08447 L 160.875,111.20947 C 200.44438,163.04396 221.57581,203.99138 257.51945,275.12353 z "
       id="path10153"
       sodipodi:nodetypes="cccc" />
    <path
       style="fill:url(#linearGradient13086);fill-opacity:1;fill-rule:evenodd;stroke:none;stroke-width:1px;stroke-linecap:butt;stroke-linejoin:miter;stroke-opacity:1"
       d="M 254.25,11.959474 C 280.46537,30.032396 303.52587,50.274305 322.97102,98.21425 C 305.73967,158.11209 284.24473,218.00992 260.48046,277.90776 C 250.34769,188.45274 255.98828,100.57505 254.25,11.959474 z "
       id="path12109"
       sodipodi:nodetypes="cccc" />
    <path
       style="fill:url(#linearGradient13098);fill-opacity:1;fill-rule:evenodd;stroke:none;stroke-width:1px;stroke-linecap:butt;stroke-linejoin:miter;stroke-opacity:1"
       d="M 260.75,279.83447 C 316.10511,252.46957 342.89321,242.25602 433.25,203.45947 C 443.46475,174.08447 444.76772,144.70947 445.75,115.33447 C 382.66006,169.69338 316.44377,223.01017 260.75,279.83447 z "
       id="path13088"
       sodipodi:nodetypes="cccc" />
    <path
       style="fill:url(#linearGradient13108);fill-opacity:1;fill-rule:evenodd;stroke:none;stroke-width:1px;stroke-linecap:butt;stroke-linejoin:miter;stroke-opacity:1"
       d="M 263.75083,283.21106 C 373.62017,263.95144 361.9234,279.7485 488.61078,300.18162 C 470.90034,329.971 436.57308,342.55435 401.9902,348.61844 C 358.50617,320.75922 350.51085,317.36244 263.75083,283.21106 z "
       id="path13100"
       sodipodi:nodetypes="cccc" />
    <path
       style="fill:url(#linearGradient15056);fill-opacity:1;fill-rule:evenodd;stroke:none;stroke-width:1px;stroke-linecap:butt;stroke-linejoin:miter;stroke-opacity:1"
       d="M 393.85848,439.30488 C 351.24309,444.51694 315.21213,432.71925 283.90337,408.72251 C 281.71342,369.83164 278.69008,341.19382 261.09918,292.0499 C 323.86544,348.19806 353.72704,387.65897 393.85848,439.30488 z "
       id="path13110"
       sodipodi:nodetypes="cccc" />
    <path
       style="fill:url(#linearGradient16035);fill-opacity:1;fill-rule:evenodd;stroke:none;stroke-width:1px;stroke-linecap:butt;stroke-linejoin:miter;stroke-opacity:1"
       d="M 213.21966,508.24608 C 222.85192,493.25968 281.17573,498.77184 276,511.17546 C 258.20269,524.34007 227.05624,524.24747 213.21966,508.24608 z "
       id="path15058"
       sodipodi:nodetypes="ccc" />
  </g>
</svg>
